<svg width="24" height="24" xmlns="http://www.w3.org/2000/svg"><circle cx="14" cy="10" r="1"/><circle cx="14" cy="14" r="1"/><circle cx="18" cy="10" r="1"/><path d="M23.062 11.719c.518 0 .938-.42.938-.938V5.625a3.754 3.754 0 0 0-3.75-3.75h-1.219V.937a.937.937 0 1 0-1.875 0v.938h-4.265V.937a.937.937 0 1 0-1.875 0v.938h-4.22V.937a.937.937 0 1 0-1.874 0v.938H3.75A3.754 3.754 0 0 0 0 5.625V20.25A3.754 3.754 0 0 0 3.75 24h11.812a.94.94 0 0 0 .095-.005.937.937 0 0 0 .768-.282l7.313-7.594a.938.938 0 0 0-.676-1.588h-4.5a3.754 3.754 0 0 0-3.75 3.75v3.844H3.75a1.877 1.877 0 0 1-1.875-1.875V5.625c0-1.034.841-1.875 1.875-1.875h1.172v.938a.937.937 0 1 0 1.875 0V3.75h4.219v.938a.937.937 0 1 0 1.875 0V3.75h4.265v.938a.937.937 0 1 0 1.875 0V3.75h1.219c1.034 0 1.875.841 1.875 1.875v5.156c0 .518.42.938.937.938zm-6.375 6.562c0-1.034.842-1.875 1.875-1.875h2.296l-4.17 4.331v-2.456z"/><circle cx="6" cy="10" r="1"/><circle cx="10" cy="14" r="1"/><circle cx="6" cy="18" r="1"/><circle cx="6" cy="14" r="1"/><circle cx="10" cy="18" r="1"/><circle cx="10" cy="10" r="1"/></svg>