<svg version="1.1" id="Layer_1" xmlns="http://www.w3.org/2000/svg" x="0" y="0" viewBox="0 0 90.5 92.8" xml:space="preserve"><style>.st0,.st1{fill-rule:evenodd;clip-rule:evenodd}.st1{fill:#6eabe1}.st2{fill:#6face2}.st2,.st3,.st5,.st6,.st7,.st8{fill-rule:evenodd;clip-rule:evenodd}.st3{fill:#71ace2}.st5{fill:#72aee3}.st6{fill:#74afe3}.st7{fill:#75afe3}.st8{fill:#77b0e3}.st12,.st14{fill-rule:evenodd;clip-rule:evenodd;fill:#7bb2e5}.st14{fill:#7eb3e5}.st17{fill:#81b6e6}.st17,.st18,.st19,.st21{fill-rule:evenodd;clip-rule:evenodd}.st18{fill:#83b7e7}.st19{fill:#85b7e7}.st21{fill:#88b8e7}.st23{fill:#8abae8}.st23,.st25,.st26,.st27{fill-rule:evenodd;clip-rule:evenodd}.st25{fill:#8dbce9}.st26{fill:#8fbce9}.st27{fill:#91bfea}.st29{fill-rule:evenodd;clip-rule:evenodd;fill:#94c0ea}.st35{fill:#9ec6ed}.st35,.st37,.st40{fill-rule:evenodd;clip-rule:evenodd}.st37{fill:#a2c7ed}.st40{fill:#a9cbef}.st42,.st45{fill-rule:evenodd;clip-rule:evenodd;fill:#adcdef}.st45{fill:#b2d1f1}.st50{fill:#bbd6f3}.st50,.st52,.st54{fill-rule:evenodd;clip-rule:evenodd}.st52{fill:#c0d8f3}.st54{fill:#c4daf3}.st57,.st59{fill-rule:evenodd;clip-rule:evenodd;fill:#cbdff5}.st59{fill:#d0e1f6}.st61{fill:#d5e5f7}.st61,.st62,.st66{fill-rule:evenodd;clip-rule:evenodd}.st62{fill:#d7e6f7}.st66{fill:#e1ecf9}.st68{fill:#e6eefa}.st68,.st71,.st73{fill-rule:evenodd;clip-rule:evenodd}.st71{fill:#ebf3fc}.st73{fill:#f0f5fc}.st77{fill:#f8fcff}.st77,.st82,.st83{fill-rule:evenodd;clip-rule:evenodd}.st82{fill:#f1eb5a}.st83{fill:none;stroke:#000;stroke-width:.2999;stroke-miterlimit:2.6131}</style><path class="st0" d="M19.5 15.3v.1z"/><path class="st1" d="M69.5 27.2h.6c-.1-.1-.2-.1-.3-.1h-.1c-.1 0-.1 0-.2.1zm-.1.2h1c-.1-.1-.2-.1-.2-.1h-.6c-.1 0-.1 0-.2.1zm-.1.1h1.3c-.1 0-.1-.1-.2-.1h-1l-.1.1zm-.1.2h1.6c-.1 0-.1-.1-.2-.1h-1.3c-.1 0-.1 0-.1.1 0-.1 0 0 0 0z"/><path class="st1" d="M69.3 27.8H71s-.1 0-.1-.1c-.1 0-.1 0-.2-.1h-1.6l.2.2z"/><path class="st1" d="M69.3 27.9h2c-.1 0-.2-.1-.3-.1h-1.7v.1zm.1.2h2.3c-.1 0-.2-.1-.4-.1h-2s0 .1.1.1zm0 .1h2.5s-.1-.1-.2-.1h-2.3v.1zm-.1.2h2.1c0-.1.4-.1.4-.1h-2.5c.1 0 .1 0 0 .1zm-.9.1h3.1v-.1h-2.1c-.1.1-.2.1-.3.1-.2 0-.2-.1-.5 0h-.2zm-.2.1h3.4v-.1h-3.1c-.2 0-.3.1-.3.1z"/><path class="st2" d="M68 28.8h3.6v-.1h-3.4l-.1.1c-.1-.1-.1 0-.1 0z"/><path class="st2" d="M67.8 28.9h3.7v-.1H68c-.1 0-.2.1-.2.1zm-.2.2h3.8l.1-.1h-3.7c-.1 0-.1 0-.2.1zm-.1.1h3.2v-.1h-3c-.1 0-.2.1-.2.1zm3.9-.1h-.6.2c.3.1.3 0 .4 0zm-4.2.2h3.4v-.1h-3.2c0 .1-.1.1-.2.1zm-.2.2h2.8c0-.1.1-.1.1-.1h-2.7s-.1 0-.2.1zm3.1 0h.6v-.1H70c-.1 0-.1.1.1.1z"/><path class="st3" d="M66.8 29.6h3v-.1H67l-.2.1zm3.9-.1h-.1.1zm-.3 0h-.3.3zm-3.8.3h3.2v-.1h-3c-.1 0-.1 0-.2.1z"/><path class="st3" d="M66.4 29.9h3.5s-.1 0-.1-.1v-.1h-3.2c0 .1-.1.1-.2.2zm0 .1h3.8c-.1 0-.2 0-.3-.1h-3.5v.1z"/><path d="M66.2 30.2h4.1c-.2-.1-.1-.1-.2-.1h-3.8l-.1.1zm-.1.1h4.7c-.1 0-.2-.1-.3-.1h-4.1c-.2 0-.2.1-.3.1z" fill="#71aee3" fill-rule="evenodd" clip-rule="evenodd"/><path class="st5" d="M66 30.5h4.9c-.1-.1-.1-.1-.2-.1H66v.1zm-.1.1H71c0-.1 0-.1-.1-.1h-5v.1zm-.1.2H71v-.1h-5.1l-.1.1z"/><path class="st5" d="M65.8 30.9H71l.1-.1h-5.2c-.1 0-.1 0-.1.1z"/><path class="st6" d="M65.8 31h5.1v-.1l.1-.1h-5.2v.2zm-.1.2h5.1c0-.1.1-.1.1-.1h-5.1c-.1 0-.1 0-.1.1zm0 .1h5.1v-.1h-5.1v.1zm6 0h.9l-.1-.1H72c-.1 0-.2 0-.3.1zm-6 .2H71c-.2 0-.2-.1-.2-.1h-5.1v.1zm5.6 0h1.3l-.1-.1h-.9l-.2.1c0-.1-.1-.1-.1 0zm-5.5.1h6.9v-.1h-1.3c-.1 0-.1.1-.2 0h-5.3c-.2 0-.1 0-.1.1z"/><path class="st6" d="M65.8 31.7h7l-.1-.1h-6.9v.1z"/><path class="st7" d="M66.4 31.9h6.5l-.1-.1h-7s0 .1.1.1c.1.1.4 0 .4 0s0-.1.1 0z"/><path class="st7" d="M66.6 32H73l-.1-.1h-6.5s.1 0 .2.1c0-.1 0 0 0 0zm0 .2H73v-.1h-6.3c0-.1 0 0-.1.1z"/><path class="st7" d="M66.5 32.3h6.6l-.1-.1h-6.4c-.1 0-.1.1-.1.1zm-.2.1h6.9l-.1-.1h-6.6s0 .1-.2.1zm-.1.2h7.1v-.1h-6.9c-.2 0-.2 0-.2.1z"/><path class="st8" d="M66.2 32.7h7.1s0-.1-.1-.1h-7.1c.1 0 .1.1.1.1zm-.1.2h7.4l-.1-.1h-7.1c-.1 0-.2 0-.2.1z"/><path class="st8" d="M65.7 33h7.8v-.1l-.1-.1H66s-.1 0-.1.1c0 0-.1 0-.2.1z"/><path d="M65.6 33.1h7.9V33h-7.8s-.1 0-.1.1zm0 .2h8v-.1h-7.9c-.1 0-.1 0-.1.1zm-.1.1h8.1l-.1-.1h-8c.1 0 0 .1 0 .1zm-.1.2h8.2v-.1h-8.1s-.1 0-.1.1zm-.1.1h8.3v-.1h-8.2l-.1.1z" fill="#78b0e3" fill-rule="evenodd" clip-rule="evenodd"/><path d="M65 33.8h8.6v-.1h-8.3c-.1 0-.1 0-.3.1.1 0 .1 0 0 0zm-.2.2h8.8v-.1H65s0-.1-.2.1z" fill-rule="evenodd" clip-rule="evenodd" fill="#7ab0e3"/><path d="M65 34.1h8.7V34h-8.8c-.1.1 0 .1.1.1zm.1.2h8.5v-.1H65c0 .1.1 0 .1.1z" fill="#7ab2e5" fill-rule="evenodd" clip-rule="evenodd"/><path class="st12" d="M65.2 34.4h8.4v-.1h-8.5c.1 0 .1 0 .1.1zm-1.4.1h.2-.2zm1.4 0h8.5l-.1-.1h-8.4v.1zm-1.5.2h.4c0-.1-.1-.1-.1-.1h-.2c0-.1 0 0-.1.1zm1.5 0h8.6l-.1-.1h-8.5v.1z"/><path class="st12" d="M63.5 34.8h.7c-.1 0-.1 0-.1-.1h-.4s-.1.1-.2.1zm1.2 0h9.2v-.1h-8.6c0 .1-.1.1-.2.1h-.4zm-1.4.2H74c0-.1-.1-.1-.1-.1h-9.2s-.1 0-.1.1c-.2 0-.3 0-.3-.1h-.8s-.1 0-.2.1z"/><path d="M63.2 35.1h10.9L74 35H63.3s-.1 0-.1.1zm-.2.1h11.2l-.1-.1H63.2c-.1 0-.1.1-.2.1zm-.1.2h11.5s-.1-.1-.2-.1H63s-.1 0-.1.1z" fill="#7db3e5" fill-rule="evenodd" clip-rule="evenodd"/><path class="st14" d="M62.7 35.5h11.8c0-.1 0-.1-.1-.1H62.9c-.1 0-.1.1-.2.1zm-.1.2h12s0-.1-.1-.1H62.7l-.1.1z"/><path class="st14" d="M62.5 35.8h12.1v-.1h-12l-.1.1zm-.2.1h12.2l.1-.1H62.5l-.2.1zm0 .2h12.1c.1 0 .1-.1.2-.1H62.3v.1z"/><path d="M61.1 36.2h.2-.2zm1.1 0h11.9l.1-.1h.1-12c-.1 0-.1.1-.1.1zm-1.8.2h1v-.1h-.9c-.2 0-.2 0-.1.1zm1.7 0h11.8s.1-.1.2-.1H62.2l-.1.1z" fill="#80b4e5" fill-rule="evenodd" clip-rule="evenodd"/><path d="M59.5 36.5h.5c0-.1-.1 0-.2 0h-.3c.1 0 0 0 0 0zm.9 0h1l-.1-.1h-1c.1 0 .1 0 .1.1zm1.6 0h11.8s0-.1.1-.1H62.1s0 .1-.1.1zm-2.8.1h.9v-.1h-.5c-.2 0-.3.1-.4.1zm1.3 0h13.2l.1-.1H62c-.2.1-.4.1-.4.1-.1 0-.2-.1-.2-.1h-1c.1 0 .1.1.1.1z" fill-rule="evenodd" clip-rule="evenodd" fill="#80b6e6"/><path class="st17" d="M59 36.8h1v-.1h-.9l-.1.1zm1.6 0h13l.1-.1H60.5c.1 0 .1 0 .1.1zm-1.6.1h1.1v-.1h-1l-.1.1zm1.6 0h11.2v-.1h.1v.1h1.5c0-.1.1-.1.1-.1h-13c.1 0 .1 0 .1.1zm-1.6.2h1.2s0-.1-.1-.1H59v.1zm1.5 0h11.3v-.2H60.6c-.1.1-.1.1-.1.2zm11.5 0h1.4s0-.1.1-.1H72v.1z"/><path class="st17" d="M59.1 37.2h1.3s-.1-.1-.2-.1V37H59l.1.2zm1.3 0h11.4c0-.1 0-.1-.1-.1H60.5l-.1.1zm11.7 0h1.3v-.1H72s.1 0 .1.1z"/><path class="st18" d="M48.7 37.3h.3s0-.1-.1-.1c0 0-.1 0-.2.1zm10.5 0h12.7v-.1H59l.2.1zm13 0h1.2l-.1-.1H72l.2.1zm-23.5.2h.4l-.1-.1h-.2v.1h-.1zm10.6 0h12.6v-.1H59.2l.1.1zm13.1 0h1.2l-.1-.1h-1.2l.1.1zm-43.5.1h.7-.7c.1 0 .1 0 0 0zm19.8 0h.5l-.1-.1h-.4v.1zm10.6 0H72v-.1H59.3v.1zm13.1 0h1.2s0-.1-.1-.1h-1.2c.1 0 .1.1.1.1zm-43.9.2H30c-.1 0-.2-.1-.3-.1h-.8c-.1-.1-.2 0-.4.1zm20.2 0h.7c-.1 0-.1-.1-.2-.1h-.5v.1zm10.7 0H72v-.1H59.3c.1-.1.1 0 .1.1zm13.1 0h1.1v-.1h-1.2s.1 0 .1.1z"/><path class="st18" d="M28.3 37.9h1.8c0-.1 0-.1-.1-.1h-1.6l-.1.1zm20.4 0h1.9c-.2-.1-.2-.1-.4-.1h-.5c-.1 0-.2 0-.3-.1h-.7v.2zm10.8 0H72v-.2H59.4c0 .1.1.1.1.2zm13.2 0h1.1c0-.1-.1-.1-.1-.1h-1.1l.1.1zM28 38h2.1v-.1h-1.8l-.1.1H28zm20.7 0h2.4-.3c-.1 0-.2-.1-.2-.1h-1.9v.1zm10.8 0h12.7l-.2-.1H59.5v.1zm13.2 0h1s0-.1-.1-.1h-1.1c.2 0 .2.1.2.1z"/><path class="st19" d="M27.9 38.2h2.2v-.1H28l-.1.1zm20.6 0h2.7c0-.1-.1-.1-.1-.1h-2.4s-.1 0-.2.1zm11 0h12.7s0-.1-.1-.1H59.5v.1zm13.3 0h1.1l-.1-.2h-1v.2c0-.1 0-.1 0 0z"/><path class="st19" d="M27.9 38.3h2.3s0-.1-.1-.1h-2.2v.1zm20.5 0h2.9c0-.1-.1-.1-.1-.1h-2.7l-.1.1zm11.1 0h12.8v-.1H59.5v.1zm13.4 0h1s0-.1-.1-.1h-1.1c.1 0 .1.1.2.1z"/><path d="M27.8 38.5h2.5c0-.1 0-.1-.1-.1h-2.3c-.1 0-.1 0-.1.1zm20.4 0h3.1s0-.1-.1-.1h-2.9l-.1.1zm11 0h13v-.1H59.5c-.1 0-.1 0-.3.1zm13.8 0h1l-.1-.1h-1s.1 0 .1.1zm-45.4.1h2.7c0-.1 0-.1-.1-.1h-2.5c.1 0 0 0-.1.1zm20.5 0h3.3v-.1h-3.1l-.2.1zm10.3 0h13.9v-.1h-13c-.1.1-.1.1-.2.1h-.7zm14.6 0h1v-.1h-1v.1zm-45.5.1h2.9s0-.1-.1-.1h-2.7l-.1.1zm19.6 0h4.3v-.1h-3.3c-.2.1-.2.1-.5.1h-.5zm7.4 0h1.2-1.2zm3.7 0h14v-.1H58.4c-.1 0-.1.1-.2.1zm14.8 0h1.1l-.1-.1h-1v.1zm-45.6.2h3v-.1h-2.9l-.1.1zm19.4 0h4.6v-.1h-4.3c-.1 0-.2 0-.3.1zm7.6 0H56c-.1 0-.2-.1-.3-.1h-1.3v.1zm3.6 0h13.2v-.1h-13s-.1 0-.2.1c.1-.1.1 0 0 0zm13.7 0h.6v-.1h-.7s.1 0 .1.1zm1.4 0h1.2l-.1-.1H73c.1 0 .1 0 .1.1z" fill="#86b8e7" fill-rule="evenodd" clip-rule="evenodd"/><path class="st21" d="M27.1 39h3.4v-.1h-3c-.2 0-.2 0-.4.1zm19.3 0h5v-.1h-4.6l-.1.1h-.3zm7.9 0h1.9v-.1l-.1-.1h-1.7c0 .1 0 .1-.1.2.1 0 .1 0 0 0zm3.5 0h13.3l.1-.1H58s-.1.1-.2.1zm14 0h.4v-.2h-.6l.2.2zm1.3 0h1.1v-.1H73c.1 0 .1.1.1.1zm-46.3.2h3.7v-.1h-3.4l-.1.1c-.1-.1-.2-.1-.2 0zm19.3 0h5.2l.1-.1V39h-5c-.1.1-.2.1-.3.2zm8.3 0h1.5v-.1c.1 0 .3 0 .4-.1h-1.9c-.1.1-.1.1 0 .2zm3.4 0H71s0-.1.1-.1H57.8v.1zm14.2 0h.2l.1-.1h-.4l.1.1c-.1-.1 0-.1 0 0zm1.2 0h1V39h-1.1s0 .1.1.2c0-.1 0-.1 0 0z"/><path class="st21" d="M26.7 39.3h3.8v-.1h-3.7c-.1 0-.1.1-.1.1zm19.1 0h5.3c0-.1.1-.1.1-.1H46s-.1 0-.2.1zm8.7 0h1.2s.1-.1.2-.1h-1.5l.1.1zm3.4 0H71v-.1H57.8l.1.1zm15.3 0h1v-.1h-1v.1zm-1-.1H72h.2c-.1 0 0 0 0 0zm-45.6.2h4s0-.1-.1-.1h-3.8c-.1 0-.1.1-.1.1zm19 0H51l.1-.1h-5.3s-.1.1-.2.1zm8.9 0h1.1v-.1h-1.2l.1.1zm3.4 0H71v-.1H57.9v.1zm15.4 0h1.1l-.1-.1h-1v.1z"/><path d="M26.5 39.6h4.2v-.1h-4c-.2 0-.2 0-.2.1zm18.9 0H51l.1-.1h-5.4c-.2 0-.2 0-.3.1zm9.3 0h1.1c-.1 0-.1-.1-.1-.1h-1.1l.1.1zm3.2 0H71v-.1H57.9v.1zm15.4 0h1.1l-.1-.1h-1.1c.1 0 .1 0 .1.1zm-47 .1H28s0-.1.1 0h2.5v-.1h-4.2s0 .1-.1.1zm18.9 0h5.7l.1-.1h-5.6c-.1 0-.1.1-.2.1zm6.8 0h.6c-.1 0-.4-.1-.5 0H52zm2.7 0h1.2c-.1-.1-.1-.1-.2-.1h-1.1c.1 0 .1.1.1.1zm3.2 0H71v-.1H57.9v.1zm15.5 0h1.2c-.1 0-.1-.1-.2-.1h-1.1c.1 0 .1.1.1.1z" fill-rule="evenodd" clip-rule="evenodd" fill="#89b9e7"/><path class="st23" d="M26.2 39.9H28c0-.1.1-.1.1-.1h-1.7c-.1 0-.2 0-.2.1 0-.1 0-.1 0 0zm2 0h2.5c0-.1 0-.1-.1-.1h-2.5c.1-.1.1 0 .1.1zm16.9 0h5.7l.1-.1h-5.7s-.1 0-.1.1zm6.7 0h2-1c-.3 0-.2-.1-.2-.1H52c-.1-.1-.2 0-.2.1zm2.8 0h2.5-.9c-.2 0-.3-.1-.3-.1h-1.2l-.1.1zm3.3 0H71v-.1H57.9v.1zm15.6 0h1.6c-.1-.1-.2-.1-.3-.1h-1.3v.1z"/><path class="st23" d="M26.1 40h1.8s0-.1.1-.1h-1.8c-.1 0-.1 0-.1.1zm2.2 0h2.5v-.1h-2.5c-.1 0 0 0 0 .1zm16.8 0h5.6l.1-.1h-5.7v.1zm6.6 0h5.8c-.1 0-.1-.1-.2-.1s-.1 0-.2-.1h-2.5c-.1.1-.1.1-.3.1-.2 0-.3 0-.3-.1h-2.2c0 .1-.1.1-.1.2zm6.2 0H71s0-.1.1-.1H57.9v.1zm15.7 0h1.7l-.1-.1-.2-.1h-1.6l.2.2z"/><path class="st23" d="M26 40.1h1.8V40H26c.1 0 .1.1 0 .1zm2.3 0h2.5V40h-2.5v.1zm16.7 0h5.6l.1-.1h-5.6c-.1 0-.1 0-.1.1zm6.6 0h19.3v-.2h-13c0 .1 0 .1-.1.1s-.1 0-.2-.1h-5.8l-.2.2zm22 0h2.2l-.1-.1c-.2 0-.3 0-.4-.1h-1.7v.2z"/><path d="M26 40.3h1.8v-.1H26v.1zm2.3 0h2.5v-.1h-2.5v.1zm16.6 0h5.6l.1-.1H45c-.1 0-.1 0-.1.1zm6.5 0h19.5v-.1H51.6c-.1 0-.1 0-.2.1zm22.2 0h2.5s-.1-.1-.2-.1h-2.4l.1.1zm-47.8.1h1.9c0-.1 0-.1.1-.1H26c-.1 0-.1.1-.2.1zm2.5 0h2.4v-.1h-2.5c.1 0 .1.1.1.1zm16.4 0h5.7l.1-.1h-5.6c-.1 0-.1.1-.2.1zm6.6 0h19.6v-.1H51.4l-.1.1zm22.3 0h2.7c-.1-.1-.1-.1-.2-.1h-2.5v.1z" fill="#8bbbe8" fill-rule="evenodd" clip-rule="evenodd"/><path class="st25" d="M25.7 40.6h2s0-.1.1-.1h-1.9c-.1 0-.2 0-.2.1zm2.7 0h2.4v-.1h-2.4c-.1 0 0 0 0 .1zm15.9 0h6s0-.1.1-.1h-5.8c-.1.1-.2.1-.3.1zm6.8 0H71s0-.1-.1-.1H51.3l-.2.1zm22.6 0h2.7v-.1h-2.7c-.1 0 0 0 0 .1zm-48.3.1h2.1l.1-.1h-2s-.1.1-.2.1zm3.1 0h2.3v-.1h-2.4s0 .1.1.1zm15.5 0h6.3v-.1h-6c-.2 0-.2.1-.3.1zm7 0h20v-.1H51.1l-.1.1zm22.8 0h2.7s0-.1-.1-.1h-2.7l.1.1z"/><path class="st25" d="M25.3 40.8h2.2l.1-.1h-2.1c-.1 0-.2.1-.2.1zm3.3 0h2.1v-.1h-2.3c.1 0 .1.1.2.1zm15.2 0h6.6l-.1-.1H44s-.1.1-.2.1zm7 0H71v-.1H51c-.1.1-.1.1-.2.1zm23 0h2.6v-.1h-2.7l.1.1zM25 41h2.3v-.1l.1-.1h-2.2c0 .1-.1.1-.2.2.1-.1 0 0 0 0zm3.7 0h2c0-.1.1-.1.1-.1h-2.1c-.1 0-.1 0 0 .1 0-.1 0 0 0 0zm11.7 0h.8c-.1 0-.1 0-.2-.1h-.5c-.1 0-.1 0-.1.1zm3.2 0H71v-.2H50.8l-.1.1c-.1 0-.2 0-.3-.1h-6.6c0 .1-.1.1-.2.2.1-.1.1 0 0 0zm30.3 0h2.6v-.1h-2.6c-.1 0 0 0 0 .1z"/><path class="st26" d="M24.9 41.1h2.4c0-.1 0-.1.1-.1H25s0 .1-.1.1zm3.9 0h1.7c.1 0 .1-.1.2-.1h-2s0 .1.1.1zm3.1 0h.2c0-.1 0-.1-.2 0zm8.4 0h1.2c0-.1-.1-.1-.3-.1h-.8c-.1 0-.1.1-.1.1zm3.3 0h27.6c0-.1-.1-.1-.1-.1H43.6v.1zm30.3 0h2.6V41h-2.6v.1z"/><path class="st26" d="M24.8 41.3h2.4v-.1h-2.4c.1-.1.1 0 0 .1 0-.1 0-.1 0 0zm4.2 0h1.1c.1 0 .2-.1.3-.1 0 0 .1 0 .1-.1h-1.7l.2.2zm2.8 0h.3v-.2h-.2l-.1.2zm8.3 0h1.4v-.2h-1.2l-.2.2zm3.5 0h27.7c0-.1 0-.1-.1-.1H43.6v.1zm30.3 0h2.7s0-.1-.1-.1h-2.6v.1zm-49.1.1h2.4l.1-.1h-2.4c-.1 0-.1.1-.1.1zm6.8 0h.4v-.1h-.3c-.1 0 0 0-.1.1zm8.4 0h1.5v-.1h-1.4s0 .1-.1.1zm2 0h.2c-.1-.1 0-.1-.1-.1s-.1 0-.1.1zm1.6 0h27.6v-.1H43.6v.1zm30.3 0h3c-.1 0-.2-.1-.3-.1h-2.7v.1zm-43.8-.1H29h.6c.2.1.4 0 .5 0z"/><path class="st27" d="M24.7 41.5H27l.1-.1h-2.4c.1 0 .1.1 0 .1zm6.6 0h.7s0-.1.1-.1h-.4c-.2 0-.3.1-.4.1zm8.7 0h1.5v-.1H40v.1zm2 0h.2v-.1H42v.1zm1.7 0h27.6v-.1H43.6c.1 0 .1.1.1.1zm30.2 0h3.4s-.1-.1-.2-.1h-3.2v.1zm-49.2.2H27l.1-.1h-2.3v.1h-.1zm6.5 0h.7v-.1h-.6l-.1.1zm8.7 0h1.6v-.1H40s-.1 0-.1.1zm2 0h.3v-.1H42l-.1.1zm1 0zm.8 0h27.6v-.1H43.7v.1zm30.2 0h3.5c0-.1 0-.1-.1-.1h-3.4v.1z"/><path class="st27" d="M24.7 41.8h2.2v-.1h-2.2v.1zm6.4 0h.7s0-.1.1-.1h-.7s0 .1-.1.1zm8.6 0h1.7v-.1h-1.6s0 .1-.1.1zm2.2 0h.3v-.1h-.3v.1zm.8 0h.6c-.1-.1-.2-.1-.2-.1h-.2c-.1 0-.1.1-.2.1zm1.3 0h27.5l-.1-.1H43.7s0 .1.1.1h.2zm29.9 0h3.5c0-.1 0-.1-.1-.1h-3.5l.1.1zm-49.2.2h2.2v-.1h-2.2v.1c0-.1 0-.1 0 0zm3 0h.3c-.2-.1-.2-.1-.3 0zm3.3 0h.8l.1-.1h-.7c-.1 0-.1 0-.2.1 0-.1 0-.1 0 0zm8.6 0h1.7c0-.1.1-.1.1-.1h-1.7l-.1.1zm2.2 0h.5s0-.1-.1-.1h-.3l-.1.1c0-.1 0-.1 0 0zm.8 0h.8v-.1h-.6c-.2 0-.2 0-.2.1zm1.5 0H72c-.1-.1-.1 0-.4 0-.1 0-.2 0-.2-.1H44l.1.1c0-.1 0-.1 0 0zm29.8 0h3.5v-.1h-3.5v.1z"/><path class="st27" d="M24 42.1h2.9V42c-.1 0-.1 0 0-.1h-2.2c-.1.1-.3.1-.5.1 0 0-.1.1-.2.1zm3.5 0h.5s0-.1-.1-.1h-.2l-.1.1c0-.1 0 0-.1 0zm3.4 0h.8s0-.1.1-.1H31l-.1.1zm8.7 0h1.7l.1-.1h-1.7c-.1 0-.1.1-.1.1zm2.2 0h.6V42h-.5c-.1 0-.1 0-.1.1zm.7 0h1l-.1-.1h-.8l-.1.1zm1.6 0h28c0-.1.1-.1 0-.1h-28v.1zm29.9 0h3.5V42H74c-.1 0 0 .1 0 .1z"/><path class="st27" d="M23.4 42.2H27c-.1 0-.1-.1-.1-.1H24c-.1 0-.1.1-.2.1h-.4zm4 0h.6v-.1h-.5s0 .1-.1.1zm1.5 0h.9c-.1-.1-.2-.1-.3-.1H29c0 .1-.1.1-.1.1zm2 0h.8V42h-.8v.2zm8.6 0h1.7s0-.1.1-.1h-1.7c-.1 0-.1.1-.1.1zm2.2 0h2l-.1-.1h-1l-.1.1c-.1 0-.1 0-.1.1v-.1h-.6c-.1-.1-.1 0-.1 0zm2.5 0H72V42H44l.2.2zm29.9 0h3.4V42H74c0 .1 0 .1.1.2z"/><path d="M22.6 42.4h5.6c-.2-.1-.1-.1-.2-.1h-5.1c-.1 0-.2 0-.3.1zm6.3 0H30c-.1-.1-.1-.1-.2-.1h-.9v.1zm1.9 0h.9v-.1h-.8c-.1 0-.1 0-.1.1zm8.6 0h1.7l.1-.1h-1.7c-.1 0-.1 0-.1.1zm2.2 0h2.1s0-.1-.1-.1h-2v.1zm2.6 0H72v-.1H44.2v.1c0-.1 0 0 0 0zm30 0h3.2v-.1H74l.2.1zm-51.9.1h6.1s-.1 0-.1-.1h-5.7c-.3 0-.3.1-.3.1zm6.4 0h1.5c-.1 0-.1-.1-.2-.1h-1.1c-.1.1-.1.1-.2.1zm1.8 0h1.2v-.1h-.9c-.1.1-.2.1-.3.1zm2.2 0h1.4c0-.1-.2 0-.4-.1h-.6c-.2.1-.3.1-.4.1zm6.6 0H41s0-.1.1-.1h-1.7s0 .1-.1.1zm2.2 0h2.1l.1-.1h-2.1s0 .1-.1.1zm2.6 0H72v-.1H44.2s-.1 0-.1.1zm30.3 0h3s0-.1.1-.1h-3.2l.1.1z" fill-rule="evenodd" clip-rule="evenodd" fill="#93bfea"/><path class="st29" d="M22.2 42.7h12.1c0-.1-.1-.1-.2-.1h-1.6c-.1 0 0 .1-.1.1H32c-.1 0-.2-.1-.2-.1h-9.4c-.1 0-.1 0-.2.1zm15.1 0h.5-.2c-.1-.1-.2-.1-.2-.1s-.1 0-.1.1zm1.9 0H41l.1-.1h-1.7c-.1 0-.1 0-.2.1zm2.3 0h2.1c0-.1 0-.1.1-.1h-2.1c-.1 0-.1 0-.1.1zm2.6 0h27.8v-.1H44.1v.1zm30.4 0h2.8v-.1h-3l.2.1z"/><path class="st29" d="M22.2 42.8h12.1v-.1H22.2v.1zm14.7 0H38c-.1-.1-.1-.1-.2-.1h-.5c-.1 0-.2.1-.4.1zm2.3 0h1.7s0-.1.1-.1h-1.7l-.1.1zm2.3 0h2.1v-.1h-2.1v.1zm2.6 0h26.8c.1 0 .2-.1.2-.1h-27v.1zm27.3 0h.5v-.1h-.6s0 .1.1.1zm3.2 0h2.6l.1-.1h-2.8l.1.1zm-53.5.1zm1.1 0h12.1v-.1H22.2v.1zm14.6 0h1.3v-.1h-1.2c-.1 0-.1.1-.1.1zm2.4 0h1.7v-.1h-1.7v.1zm2.2 0h2.1v-.1h-2.1v.1zm2.6 0h26.7s0-.1.1-.1H44.1l-.1.1c.1 0 .1 0 0 0zm27.4 0h.4v-.1h-.5c.1 0 .1.1.1.1zm3.3 0h2.5v-.1h-2.6c.1 0 .1.1.1.1zm-53.9.2h.6l-.1-.1h-.2l-.3.1c0-.1 0 0 0 0zm1.5 0h11.9l.1-.1H22.2l.1.1c-.1-.1-.1-.1 0 0zm12.2 0h1.6L36 43h-1.1c-.2 0-.3 0-.4.1zm2 0h1.6V43h-1.3l-.1.1c-.1-.1-.2-.1-.2 0zm2.6 0h1.7v-.2h-1.7v.2c0-.1 0 0 0 0zm2.3 0h2.2v-.2h-2.1c-.1.1-.1.1-.1.2zm2.6 0h26.7l.1-.1H44v.1zm27.5 0h.3v-.2h-.4c0 .1.1.1.1.2zm3.3 0h2.5l-.1-.1h-2.5c.1 0 .1 0 .1.1z"/><path d="M20.7 43.2h1c-.1 0-.2-.1-.2-.1l-.1-.1h-.6c-.1.1-.1.2-.1.2zm1.7 0h15.7v-.1h-1.6c-.1 0-.1.1-.2.1s-.1 0-.1-.1h-1.6s-.1 0-.1.1h-.2c-.1 0 0 0 0-.1h-12l.1.1zm16.8 0h1.7v-.1h-1.7c-.1 0 0 .1 0 .1zm2.2 0h2.1v-.1h-2.2c.1 0 .1.1.1.1zm2.6 0h26.7s0-.1.1-.1l.1-.1H44v.2zm30.9 0h2.7s0-.1-.2-.1l-.1-.1h-2.5c.1.1.1.2.1.2zm-3.1-.1h-.3s.1.1.2.1c0-.1 0-.1.1-.1zm-51.2.3h17.5v-.1H22.4h.1-1.9c.1-.1 0-.1 0 .1zm18.6 0h1.6v-.1h-1.7l.1.1zm2.3 0h2.1v-.1h-2.1c-.1-.1 0 0 0 .1zm2.4 0h26.6s0-.1.1-.1H44l-.1.1zm31.2 0h2.6c0-.1 0-.1-.1-.1h-2.7c0-.1.1 0 .2.1zm-54.6.1h17.8l-.1-.1H20.6l-.1.1zm18.7 0h1.6v-.1h-1.6v.1zm2.3 0h2.1v-.1h-2.1v.1zm2.4 0h26.5l.1-.1H43.9v.1zm31.3 0h2.5v-.1h-2.6l.1.1zm-54.8.1h18l-.1-.1H20.5l-.1.1zm18.9 0h1.5v-.1h-1.6c.1 0 .1.1.1.1zm2.3 0h2.1c-.1 0-.1-.1-.1-.1h-2.1s0 .1.1.1zm2.3 0h26.5v-.1H43.9v.1zm31.5 0h2.5c0-.1 0-.1-.1-.1h-2.5l.1.1z" fill="#96c1eb" fill-rule="evenodd" clip-rule="evenodd"/><path d="M20.3 43.8h18.2l-.1-.1h-18l-.1.1zm19.1 0h1.5v-.1h-1.5c-.1 0 0 0 0 .1zm2.3 0h28.7v-.1H43.9c-.1.1-.1 0-.2 0h-2.1s.1 0 .1.1zm33.8 0h2.4l-.1-.1h-2.5l.2.1zm-55.2.1h18.3s0-.1-.1-.1H20.3v.1zm19.1 0h1.5v-.1h-1.5v.1zm2.5 0h28.6v-.1H41.7c.1 0 .1.1.2.1zm33.8 0H78l-.1-.1h-2.4s.1.1.2.1zm-55.6.2h18.6l-.1-.1H20.3v.1c-.1-.1-.1-.1-.2 0zm19.3 0h1.5V44h-1.5v.1c0-.1 0-.1 0 0zm2.7 0h28.1c.1 0 .1-.1.2-.1v-.1H41.9c0 .1.1.1.2.2zm33.8 0H78v-.2h-2.3c0 .1.1.1.2.2z" fill="#98c2eb" fill-rule="evenodd" clip-rule="evenodd"/><path d="M20 44.2h20.9v-.1h-1.5c0 .1-.1.1-.2.1h-.4l-.1-.1H20.1s-.1 0-.1.1zm22.3 0h27.8c.1-.1.1-.1.2-.1H42.1c.1 0 .1 0 .2.1zm33.9 0h1.9V44H76c0 .1 0 .1.2.2-.1 0-.1 0 0 0z" fill-rule="evenodd" clip-rule="evenodd" fill="#9ac2eb"/><path d="M19.8 44.3h21v-.2H20c-.1.1-.1.2-.2.2zm22.6 0H70v-.1l.1-.1H42.3c0 .1 0 .2.1.2zm34 0h1.7v-.1h-1.9s.1.1.2.1zm-56.8.2h21.2v-.1h-21s-.1 0-.2.1zm22.8 0h27.4c.1-.1.1-.1.2-.1H42.4v.1zm34.3 0h1.5s0-.1-.1-.1h-1.7c.1 0 .2 0 .3.1zm-57.2.1h21.3v-.1H19.6l-.1.1zm22 0h.5c-.2-.1-.4-.1-.5 0zm1.1 0h27.1c.1-.1.1-.1.2-.1H42.4c.1 0 .2.1.2.1zm34.4 0h1.2s0-.1-.1-.1h-1.5c.2 0 .3.1.4.1z" fill="#9ac4ec" fill-rule="evenodd" clip-rule="evenodd"/><path d="M19.4 44.8h21.4v-.1H19.5c-.1 0-.1 0-.1.1zm21.7 0h1.1c0-.1-.1-.1-.2-.1h-.5c-.3-.1-.2 0-.4.1zm1.5 0h26.9l.1-.1h-27v.1zm34.7 0h1.1l-.1-.1H77c.1 0 .2 0 .3.1zm-58 .1h22.9v-.1h-1.1c-.2.1-.1.1-.2.1v-.1H19.4l-.1.1zm23.3 0h26.7s.1-.1.2-.1H42.6v.1zm34.9 0h.9c0-.1 0-.1-.1-.1h-1.1c.1 0 .2 0 .3.1zm-58.3.1h23.2c-.1 0-.1-.1-.2-.1H19.3l-.1.1zm23.3 0h26.7c.1 0 .1-.1.2-.1H42.6s0 .1-.1.1c.1 0 0 0 0 0zm35.3 0h.7s0-.1-.1-.1h-.9c.1 0 .2.1.3.1z" fill="#9cc5ec" fill-rule="evenodd" clip-rule="evenodd"/><path class="st35" d="M19.2 45.2h49.6c.1 0 .2-.1.3-.1.1 0 .1-.1.1-.1h-50v.2zm58.8 0h.6v-.1l-.1-.1h-.7l.2.2z"/><path class="st35" d="M19.2 45.3h49.4c.1-.1.1-.1.2-.1H19.2v.1zm59 0h.5l-.1-.1H78l.1.1h.1zm-59 .2h49.4v-.1H19.2v.1zm59.2 0h.3l-.1-.1h-.5c.1 0 .2 0 .3.1zm-59.2.1h49.3v-.1H19.2v.1zm59.5 0h.2l-.1-.1h-.3.1s0 .1.1.1z"/><path d="M19.2 45.7h49.4v-.1H19.2v.1zm59.7 0h.2s-.1-.1-.2-.1h-.2s.1.1.2.1zm-59.7.2h49.4v-.1H19.2v.1zm59.9 0c.1-.1.1-.1 0-.1h-.2c.1 0 .1.1.2.1zm-59.9.1h49.4v-.1H19.2v.1zm60-.1c-.1 0 0 0 0 0z" fill="#a0c6ed" fill-rule="evenodd" clip-rule="evenodd"/><path class="st37" d="M19.2 46.2h49.4V46H19.2v.1z"/><path class="st37" d="M19.1 46.3h49.5v-.1H19.2l-.1.1zm-.1.1h49.6v-.1H19.1l-.1.1zm-.1.2h49.6v-.1H19c-.1 0-.1 0-.1.1z"/><path d="M19 46.7h49.6v-.1H18.9s0 .1.1.1zm0 .2h49.5v-.1H19v.1z" fill="#a5caee" fill-rule="evenodd" clip-rule="evenodd"/><path d="M19.1 47h49.5v-.1H19l.1.1zm0 .1h49.4V47H19.1v.1zm.1.2h49.4v-.1H19.1s.1 0 .1.1zm0 .1h49.4v-.1H19.2v.1z" fill="#a7cbee" fill-rule="evenodd" clip-rule="evenodd"/><path class="st40" d="M19.1 47.6h49.5v-.1H19.2c-.1 0-.1 0-.1.1zm-.1.1h49.6v-.1H19.1c-.1 0-.1.1-.1.1z"/><path class="st40" d="M18.9 47.8h49.7v-.1H19c-.1 0-.1.1-.1.1zm0 .2h49.7v-.1H18.9v.1z"/><path d="M18.8 48.1h49.8V48H18.9c-.1 0-.1 0-.1.1zm-.3.2h50.1v-.1H18.8c-.1 0-.2 0-.3.1zm-.8.1h50.9v-.1H18.5s-.1 0-.1.1h-.5c-.1-.1-.2 0-.2 0z" fill-rule="evenodd" clip-rule="evenodd" fill="#abccef"/><path class="st42" d="M17.6 48.5h51v-.1H17.7l-.1.1zm-.1.2h51v-.1h-51c.1 0 .1 0 0 .1z"/><path class="st42" d="M17.5 48.8h51.1v-.1h-51c-.1 0-.1.1-.1.1zm-.1 0z"/><path d="M17.5 49h51.1v-.1H17.5s-.1 0 0 .1v-.1.1z" fill-rule="evenodd" clip-rule="evenodd" fill="#aecff0"/><path d="M17.6 49.1h51V49H17.5l.1.1zm.2.1h50.8v-.1h-51l.2.1zm.2.2h50.5v-.1H17.8l.1.1c0-.1 0-.1.1 0z" fill="#b0d0f0" fill-rule="evenodd" clip-rule="evenodd"/><path class="st45" d="M18.2 49.5h50.3v-.1H18c.1 0 .1.1.2.1zm.1.2h50.2v-.1H18.2s.1 0 .1.1z"/><path class="st45" d="M18.3 49.8h50.1v-.1H18.3v.1zm.1.1h50v-.1H18.3c.1 0 .1.1.1.1z"/><path d="M18.5 50.1h49.9V50h-50s.1 0 .1.1zm.1.1h49.8c0-.1 0-.1.1-.1h-50l.1.1z" fill="#b4d2f1" fill-rule="evenodd" clip-rule="evenodd"/><path d="M18.6 50.4h49.8v-.1H18.6v.1zm51.6 0h.7s-.1 0-.1-.1l-.6.1c.1-.1 0-.1 0 0zm-51.6.1h49.8v-.1H18.6v.1zm51.5 0h1.4l-.1-.1h-1.1c-.2 0-.2 0-.2.1z" fill="#b6d3f1" fill-rule="evenodd" clip-rule="evenodd"/><path d="M18.5 50.6h49.9s0-.1-.1-.1H18.6c0 .1-.1.1-.1.1zm51.5 0h1.6c-.1-.1-.2-.1-.2-.1H70v.1z" fill-rule="evenodd" clip-rule="evenodd" fill="#b7d4f2"/><path d="M18.4 50.8H69h-.1s-.2 0-.4-.1h-50l-.1.1zm51.6 0h1.8c-.1-.1-.1-.1-.2-.1H70v.1zm-51.6.1h51.2-.2c-.1 0-.2-.1-.3-.1H18.4v.1zm51.7 0H72l-.1-.1H70l.1.1zm-51.8.2h51.5s-.1 0-.2-.1H18.4s-.1 0-.1.1zm51.8 0h2l-.1-.2h-1.9v.2z" fill-rule="evenodd" clip-rule="evenodd" fill="#b9d5f2"/><path class="st50" d="M18.3 51.2H70V51h2l.1.1v.1H70v-.1c-.1 0-.1 0-.2-.1H18.3v.2z"/><path class="st50" d="M18.2 51.3h54c0-.1-.1-.1-.1-.1H18.3l-.1.1zm0 .2h54.1c0-.1 0-.1-.1-.1h-54v.1zm-.1.1h54.2l-.1-.1h-54l-.1.1z"/><path d="M18.2 51.8h54.3l-.1-.1H18.1l.1.1zm0 .1h54.3l-.1-.1H18.2v.1zm.1.1h54.2l-.1-.1H18.2c0 .1 0 .1.1.1z" fill="#bdd7f3" fill-rule="evenodd" clip-rule="evenodd"/><path class="st52" d="M18.4 52.2h54.2s0-.1-.1-.1H18.3s.1 0 .1.1z"/><path class="st52" d="M18.5 52.3h54.2v-.2H18.4c0 .1.1.2.1.2zm0 .2h54.2c0-.1 0-.1-.1-.1H18.5v.1z"/><path d="M18.7 52.6h54.2s0-.1-.1-.1H18.5l.2.1zm.1.1h54.1l-.1-.1H18.7zm.1.2h54s0-.1-.1-.1h-54l.1.1zm.1.1h54l-.1-.1h-54l.1.1z" fill="#c2d9f3" fill-rule="evenodd" clip-rule="evenodd"/><path class="st54" d="M19.1 53.2h54c0-.1-.1-.1-.1-.1H19s.1 0 .1.1z"/><path class="st54" d="M19.2 53.3h54l-.1-.1h-54s.1 0 .1.1z"/><path d="M19.3 53.4h54l-.1-.1h-54l.1.1zm0 .2h54l-.1-.1h-54c.1 0 .1 0 .1.1zm0 .1h54.1s0-.1-.1-.1h-54v.1zm-.1.2h54.3l-.1-.1H19.3c0-.1-.1 0-.1.1z" fill-rule="evenodd" clip-rule="evenodd" fill="#c7ddf5"/><path d="M19.1 54h54.4l-.1-.1H19.2l-.1.1zm0 .1h54.6l-.1-.1H19.1v.1zm-.1.2h54.7l-.1-.1H19.1s-.1 0-.1.1z" fill="#c9def5" fill-rule="evenodd" clip-rule="evenodd"/><path class="st57" d="M18.8 54.4h54.9s0-.1-.1-.1H19l-.2.1zm-.1.2h55.1s0-.1-.1-.1H18.8l-.1.1c.1-.1.1-.1 0 0zm-.3.1h55.4v-.1H18.7s-.2 0-.3.1z"/><path class="st57" d="M18.1 54.8h55.8v-.1H18.4c-.1 0-.2 0-.3.1z"/><path d="M17.8 55H74c0-.1-.1-.1-.1-.1H18l-.2.1zm-.1.1h45.6c.1-.1.2-.1.4-.1H17.8l-.1.1zm47.7 0H74c0-.1 0-.1-.1-.1h-8.8c.1 0 .2.1.3.1z" fill="#cde0f5" fill-rule="evenodd" clip-rule="evenodd"/><path class="st59" d="M17.4 55.3h6.7c.1-.1.2-.1.2-.1h-6.5l-.1.1h-.3zm7.7 0h38l.1-.1H24.5c.1 0 .3.1.4.1h.2zm40.4 0H74v-.1h-8.6s.1 0 .1.1z"/><path class="st59" d="M16.6 55.4h6.2s.1 0 .1-.1c.1 0 .1 0 .2.1h.7l.1-.1s.1 0 .1-.1h-6.7c-.1.1-.1.1-.3.1-.2-.1-.2 0-.4.1.1 0 .1 0 0 0zm8.7 0h37.6l.1-.1H25l.3.1zm40.4 0h8.4v-.1h-8.5l.1.1zm-49.1.1h6.2l.1-.1h-6.2l-.1.1zm6.7 0h.5s0-.1.1-.1h-.7l.1.1zm2.6 0h9.7c.1 0 .2-.1.3-.1.1 0 .1 0 .2.1h26.7l.1-.1H25.3l.1.1h.5zm39.9 0h8.3v-.1h-8.4l.1.1zm-49.2.2h6.1s0-.1.1-.1h-6.2v.1zm6.8 0h.3l.1-.1h-.5c.1 0 .1 0 .1.1zm2.8 0h5.5c.2-.1.5-.1.8 0h2.9s.2-.1.3-.1H26h.1l.1.1zm10.1 0h26.4s0-.1.1-.1H36.1c.1 0 .1 0 .2.1zm29.6 0h8.2v-.1h-8.3c.1 0 .1 0 .1.1z"/><path d="M16.5 55.8h6.1l.1-.1h-6.1s0 .1-.1.1zm7 0c.1 0 .2-.1.2-.1h-.3l.1.1zm2.8 0H31c.1-.1.3-.1.6-.1h-5.5l.2.1zm10.3 0h26.1v-.1H36.3c.1 0 .2.1.3.1zm29.4 0h8.1v-.1h-8.2c.1 0 .1.1.1.1zm-30.7-.1h-2.9 2.9zm-19.6.3h6.7c.1-.1.1-.1.2-.1h-6.5c-.3-.1-.3.1-.4.1zm10.8 0h4.4s.1-.1.2-.1h-4.7l.1.1zm10.1 0h26v-.1h-26v.1zm29.6 0h7.9v-.1H66c0-.1.1 0 .2.1zm-42.7-.2c0 .1 0 .1 0 0z" fill="#d2e4f7" fill-rule="evenodd" clip-rule="evenodd"/><path class="st61" d="M15.6 56.1h6.7l.1-.1h-6.7c-.1 0-.1.1-.1.1zm11.2 0h4c0-.1.1-.1.1-.1h-4.4s.2.1.3.1zm9.9 0h26V56h-26v.1zm29.7 0h7.7V56h-7.9c.1 0 .1.1.2.1zm-50.8.1h6.6l.1-.1h-6.7v.1zm11.4 0h3.7l.1-.1h-4s.1.1.2.1zm9.8 0h25.9v-.1h-26c0 .1.1.1.1.1zm29.7 0h7.6v-.1h-7.7l.1.1z"/><path class="st61" d="M15.6 56.4h6.3c.1-.1.2-.1.3-.1l.1-.1h-6.6l-.1.2c0-.1 0 0 0 0zm11.5 0h3.5l.1-.1H27s.1 0 .1.1zm9.8 0h25.8v-.1H36.8l.1.1zm29.8 0h4.6c0-.1.1-.1.2-.1h-4.9l.1.1zm5.1 0h2.3v-.1h-2.4l.1.1z"/><path class="st61" d="M15.6 56.5h6.2v-.1l.1-.1h-6.3c-.1.2-.1.2 0 .2zm11.6 0h3.3s0-.1.1-.1h-3.5l.1.1zm9.8 0h25.7v-.1H36.9l.1.1c-.1 0 0 0 0 0zm29.9 0h4.3s0-.1.1-.1h-4.6c.1 0 .1.1.2.1zm4.9 0h2.3v-.1h-2.3v.1z"/><path class="st62" d="M15.7 56.7h6s0-.1.1-.1h-6.2l.1.1zm11.5 0h3.3v-.1h-3.3v.1c0-.1 0-.1 0 0zm10 0h25.6v-.1H37c.1 0 .1 0 .2.1zm29.9 0h4l.1-.1h-4.3.1l.1.1zm4.8 0h2.3v-.1h-2.3v.1c-.1-.1-.1-.1 0 0z"/><path class="st62" d="M15.7 56.8h5.9v-.1h-6l.1.1zm11.5 0h3.1c.1 0 .1-.1.1-.1h-3.3c.1 0 .1.1.1.1zm10.1 0h25.6c0-.1-.1-.1-.1-.1H37.2l.1.1zm30 0H71l.1-.1h-4s.1.1.2.1zm4.6 0h2.2v-.1h-2.3c.1 0 .1 0 .1.1zm-56.2.1h5.9v-.1h-5.9v.1zm11.6 0h2.8s.1-.1.2-.1h-3.1c0 .1.1.1.1.1zm10 0H63s0-.1-.1-.1H37.3v.1zm30.5 0h3.1l.1-.1h-3.7c.1.1.3.1.5.1-.1 0 0 0 0 0zm4.1 0h2.2v-.1h-2.2v.1z"/><path d="M15.8 57.1h5.8V57h-5.9s.1 0 .1.1zm11.9 0H30l.1-.1h-2.8c0 .1.3.1.4.1zm9.8 0H63s0-.1-.1-.1H37.3c.1 0 .1 0 .2.1zm32.2 0h1.1l.1-.1h-3.1c.2 0 .6.1.8.1.2 0 .7-.1 1 0h.1zm2.2 0h2.2V57h-2.2v.1zm-56 .1h5.8v-.1h-5.8v.1zm12.1 0h1.9l.1-.1h-2.2s.1.1.2.1zm9.6 0H63v-.1H37.5l.1.1zm32.2 0h.8c.1 0 .1-.1.2-.1h-1.1s0 .1.1.1zm2.1 0h2.2v-.1h-2.2v.1zm-56 .2h5.7v-.1h-5.8c.1 0 .1 0 .1.1zm12.2 0h1.8v-.1H28l.1.1zm9.6 0H63v-.1H37.6l.1.1c0-.1 0-.1 0 0zm32.1 0h.6l.1-.1h-.8c.1 0 .1 0 .1.1 0-.1 0-.1 0 0zm2.1 0h2.2v-.1h-2.2v.1z" fill="#d9e7f8" fill-rule="evenodd" clip-rule="evenodd"/><path d="M16 57.5h5.7v-.1H16v.1zm12.3 0h1.6v-.1h-1.8c.1 0 .1.1.2.1zm9.5 0H63v-.1H37.7l.1.1zm32.1 0h.3l.1-.1s.1 0 .1-.1h-.6c0 .1.1.2.1.2zm2.1 0h2.1v-.1h-2.2c.1 0 .1.1.1.1zm-56 .1h5.6v-.1H16v.1zm12.8 0h1l.1-.1h-1.6.2c.1.1.2.1.3.1zm9.1 0H63v-.1H37.8l.1.1zm34.2 0h2v-.1H72c0 .1.1.1.1.1zm-1.9-.1h-.3.1c0 .1.1.1.2 0zm-54.1.3h5.6v-.1H16l.1.1zm12.9 0h.7v-.1h-1c.2 0 .3 0 .3.1zm9 0h25v-.1H37.9s.1 0 .1.1zm34.2 0h1.9v-.1h-2c.1 0 .1 0 .1.1z" fill="#dceaf9" fill-rule="evenodd" clip-rule="evenodd"/><path d="M16.1 57.9h5.6v-.1h-5.6v.1zm13 0h.4c.2 0 .2-.1.2-.1H29l.1.1zm10.4 0H63v-.1H38c.1.1.4 0 .6 0h.6c.1 0 .2.1.3.1zm32.7 0h1.9v-.1h-1.9v.1zm-56.1.2h5.6V58h-5.6v.1zm23.7 0h23.1s0-.1.1-.1H39.5c.1 0 .2 0 .3.1zm32.3 0H74V58h-1.9c.1 0 0 0 0 .1zm-42.7-.2h-.3c.1.1.1 0 .3 0z" fill="#deebf9" fill-rule="evenodd" clip-rule="evenodd"/><path class="st66" d="M16.1 58.2h5.6v-.1h-5.6v.1zm23.8 0h22.9v-.1h-23l.1.1zm32.2 0H74v-.1h-1.9v.1z"/><path class="st66" d="M16.1 58.3h5.7v-.1h-5.6v.1h-.1zm23.9 0h22.8s0-.1.1-.1h-23c.1 0 .1.1.1.1zm32.1 0H74v-.2h-1.9v.2zm-56 .2h5.7v-.2h-5.7v.2zm24.1 0h22.6s0-.1.1-.1H40c.1 0 .1 0 .2.1zm31.9 0H74v-.1h-1.8v.1zm-56 .1h5.7v-.1h-5.7v.1zm24.2 0h22.4l.1-.1H40.2l.1.1zm31.8 0h1.8v-.1h-1.8v.1z"/><path d="M16.2 58.8h5.6v-.1h-5.7l.1.1zm24.2 0h22.2l.1-.1H40.3s.1 0 .1.1zm31.7 0h1.8v-.1h-1.8v.1zm-55.9.1h5.4l.1-.1h-5.6v.1h.1zm24.3 0h21.9c.1 0 .1-.1.1-.1H40.4l.1.1zm31.6 0h1.8v-.1h-1.8v.1zm-55.5.1h4.2c.1 0 .1-.1.2-.1h.6-5.4.2l.2.1zm23.9 0h21.4c.1 0 .3-.1.5-.1H40.5v.1zM72 59h1.9v-.1h-1.8l-.1.1z" fill-rule="evenodd" clip-rule="evenodd" fill="#e3edfa"/><path class="st68" d="M16.7 59.2h4l.1-.1h-4.2l.1.1zm23.8 0h20.2c.4 0 .9 0 1.2-.1H40.5v.1zm31.4 0h1.9v-.1H72l-.1.1z"/><path class="st68" d="M16.9 59.3h3.7c.1 0 .1-.1.2-.1h-4l.1.1zm23.7 0h19.5c.1-.1.4-.1.5-.1H40.5l.1.1zm31.3 0h1.9v-.1h-1.9v.1zm-54.9.2h3.3v-.1c.1 0 .1-.1.1-.1h-3.7l.3.2zm23.6 0h19.3l.1-.1.1-.1H40.6v.2zm31.3 0h1.9v-.1h-1.9v.1z"/><path d="M17.2 59.6h3.2v-.1H17l.2.1zm23.5 0H52s.1-.1.2-.1v.1h7.5c0-.1.1-.1.1-.1H40.6l.1.1c-.1-.1-.1 0 0 0zm31.2 0h1.9v-.1h-1.9v.1z" fill-rule="evenodd" clip-rule="evenodd" fill="#e8effa"/><path d="M17.5 59.7h2.9v-.1h-3.2l.3.1zm23.2 0h11.2c0-.1 0-.1.1-.1H40.7v.1zm11.7 0h7.3l.1-.1h-7.5c-.1 0 0 .1.1.1zm19.4 0h1.9v-.1h-1.9v.1z" fill-rule="evenodd" clip-rule="evenodd" fill="#e9f2fc"/><path class="st71" d="M17.6 59.9h2.8v-.1h-2.9.1v.1zm23.2 0h11.1c0-.1 0-.1.1-.1H40.7c.1 0 .1 0 .1.1zm11.8 0h6.9l.1-.1h-7.3c.2 0 .2.1.3.1zm19.2 0h2v-.1h-1.9c-.1 0-.1 0-.1.1zm-54.1.1h2.7s0-.1.1-.1h-2.8v.1zm23.1 0h11v-.1h-11v.1zm12 0h6.5l.1-.1h-6.9c.2 0 .2.1.3.1zm19 0h2v-.1h-2v.1zm-54.1.2h2.6v-.1h-2.7l.1.1zm23.2 0h11v-.1h-11c-.1 0 0 0 0 .1zm12.1 0h1.8c.1-.1.2-.1.4-.1h-2.3l.1.1zm3.3 0h3l.1-.1h-3.8c.2 0 .4 0 .5.1.1-.1.1 0 .2 0zm15.5 0h2V60h-2v.2z"/><path class="st71" d="M17.8 60.3h2.5v-.1h-2.6l.1.1zm23.2 0h10.9v-.1h-11l.1.1zm12.2 0h1.4l.1-.1H53s.1.1.2.1zm3.2 0h2.7c.1-.1.1-.1.2-.1h-3c.1 0 .1.1.1.1zm15.4 0h2v-.1h-2v.1z"/><path d="M17.9 60.5h2.3c0-.1 0-.1.1-.1h-2.5l.1.1zm23.2 0h10.5s.1-.1.2-.1H41s.1 0 .1.1zm12.4 0h.6c.1 0 .2-.1.3-.1h-1.2c.1 0 .2 0 .3.1zm3.1 0h2.3c.1 0 .1-.1.2-.1h-2.7c.1-.1.1 0 .2.1-.1-.1-.1-.1 0 0zm15.2 0h1.9v-.2h-2v.2zm-53.8.1h2.2v-.1h-2.3l.1.1zm23.3 0h10.1l.1-.1H41.1l.1.1c.1-.1.1 0 .1 0zm15.7 0h1.7c.1 0 .2-.1.3-.1h-2.3s.1 0 .3.1zm14.8 0h1.8c0-.1 0-.1.1-.1h-1.9v.1zm-17.7-.1h-.6c.1 0 .3.1.4.1.1-.1.1-.1.2-.1z" fill="#edf4fc" fill-rule="evenodd" clip-rule="evenodd"/><path class="st73" d="M18.3 60.7h1.8v-.1H18l.3.1zm24.1 0h4.8c.1-.1.3-.1.4-.1.2 0 .3.1.4.1h3.1c.1 0 .1-.1.2-.1h.1-10.1.9c.1 0 .2.1.2.1zm15.1 0h.8c.1 0 .1-.1.1-.1h.2H57c.1 0 .3.1.5.1zm14.3 0h1.7s0-.1.1-.1h-1.8v.1z"/><path class="st73" d="M18.5 60.9h1.7v-.1h-1.8.1v.1zm24 0H47c.1-.1.1-.1.2-.1h-4.8c.1 0 .1 0 .1.1zm7 0h1.4c.1 0 .1-.1.2-.1H48h1.1c.2 0 .3 0 .4.1zm22.6 0h1.4v-.1h-1.7.2c.1 0 .1 0 .1.1zm-13.8-.2h-.8.1c.3.1.5.1.7 0zm-39.7.3h1.5c0-.1 0-.1.1-.1h-1.7l.1.1zm24.1 0h4c.1-.1.3-.1.3-.1h-4.5c.1 0 .1.1.2.1zm29.6 0h1.2v-.1h-1.4c.1 0 .1.1.2.1zm-21.4-.1h-1.4.1c.1.1.7.1 1 .1.1 0 .2-.1.3-.1zm-32.2.3h1.4v-.1h-1.5l.1.1zm24.2 0h3.5c.1 0 .2-.1.3-.1h-4c.1 0 .1 0 .2.1zm29.5 0h1.1v-.1h-1.2s.1 0 .1.1z"/><path d="M18.8 61.3h1.3v-.1h-1.4l.1.1zm24.2 0h3.1c.1-.1.1-.1.2-.1h-3.4s.1 0 .1.1zm29.9 0h.7v-.1h-1.1s.1.1.4.1c-.1 0-.1 0 0 0z" fill-rule="evenodd" clip-rule="evenodd" fill="#f2f6fc"/><path d="M18.8 61.4H20v-.1h-1.3l.1.1zm24.4 0H46s.1-.1.2-.1H43v.1h.2zm30.3-.1h-.7c.3.1.6.1.7 0zm-54.6.3H20v-.1h-1.2l.1.1zm24.5 0h2.4l.1-.1.1-.1h-2.8l.2.2z" fill="#f3fafe" fill-rule="evenodd" clip-rule="evenodd"/><path d="M18.9 61.7H20v-.1h-1.2l.1.1zm24.6 0h2.1c.1 0 .1-.1.2-.1h-2.4l.1.1zm-24.5.2h1v-.1h-1.1l.1.1zm24.7 0h1.7c.1 0 .2-.1.3-.1h-2.1l.1.1z" fill-rule="evenodd" clip-rule="evenodd" fill="#f5fbfe"/><path class="st77" d="M19 62h1v-.1h-1v.1zm24.8 0h1.1c.1 0 .3-.1.4-.1h.1-1.7l.1.1zm-24.6.1h.8V62h-1l.2.1zm24.7 0h.7c.1-.1.2-.1.4-.1h-1.1v.1z"/><path class="st77" d="M19.2 62.3h.8v-.1h-.9v.1h.1zm25.1-.2h-.4c0 .1.1.1.1.1.1 0 .2-.1.3-.1zm-25.1.3h.9v-.1h-.9v.1z"/><path d="M19.2 62.6h.9v-.1h-.9v.1c0-.1 0-.1 0 0zm0 .1h.9v-.1h-.9v.1z" fill="#fbfdff" fill-rule="evenodd" clip-rule="evenodd"/><path d="M19.3 62.8h.9v-.1h-.9c-.1.1 0 .1 0 .1zm.2.2h.3l.4-.1v-.1h-.9v.1zm.3 0h-.3.3z" fill="#fff" fill-rule="evenodd" clip-rule="evenodd"/><path d="M19.8 63h-.2l-.2-.1s-.1-.2-.1-.4v-.4L19 62l-.1-.2-.1-.4-.1-.2-.2-.4-.4-.1-.2-.2-.1-.2-.1-.4-.4-.1-.3-.4-.2-.2-.2-.2h-.2v-.1c-.1-.1-.1-.1-.1-.4V58c0-.1-.1-.4-.1-.4s0-.2-.1-.4-.1-.2-.1-.5c-.1-.1-.2-.1-.1-.4 0-.2 0-.2.1-.4.1 0 .1-.1.4-.1h.4c.1 0 .1-.1.1-.1 0-.1 0-.2.1-.4.1 0 .1-.1.4 0 .2 0 .2 0 .4-.1h.2l.2-.4h.1c.1-.1.2-.1.4-.1.1-.1.4-.1.4-.2l.2-.2c0-.1.1-.2.1-.2 0-.1.1-.2.1-.2 0-.1 0-.4-.1-.5 0 0-.2-.2-.2-.4l-.4-.4s-.1-.2-.1-.4c-.1-.1-.2-.1-.2-.2s-.1-.2 0-.4c0-.1.1-.4.1-.4 0-.1.1-.2.1-.4 0 0 .1-.1.1-.2v-.4c-.1-.1-.1-.2-.2-.4 0 0 0-.1-.1-.2s-.2-.2-.4-.2l-.2-.2-.1-.1V49v.1c0-.1.1-.2.1-.4.1-.1.1-.2.4-.2h.5c.1-.1.4-.1.4-.2.1-.1.1-.4.2-.5 0 0 .1-.1.1-.2s-.1-.4-.1-.4c0-.1-.1-.2-.1-.4 0-.1 0-.1.1-.2s.1-.1.1-.2V46c.1-.1 0-.4 0-.4v-.2l.2-.4c0-.1.4-.4.4-.4.1-.1.4-.4.5-.4 0-.1.1-.4.1-.4l.2-.4c0-.1.1-.1.1-.2h.3v-.1l.2.2c.1 0 .2.1.5.1h.6s-.1 0-.1-.1c-.1 0-.1-.1-.1-.1 0-.2-.1-.2 0-.4.1-.1 0-.2.2-.2.1 0 .2-.1.4-.1h.5c.2-.1.4-.1.5-.1.1 0 .2-.1.4-.1s.4 0 .5-.1v-.4c.1-.1.1-.2.1-.4.1 0 .1-.1.2-.2.1 0 .2-.1.4-.2.1 0 .4-.2.5-.4.1-.1.1-.4.2-.5.1 0 .2-.2.4-.4.1-.1 0-.1.4-.4.5-.2.4-.1.5-.2.1-.1.1-.2.2-.2.1-.1.1-.1.2-.4 0-.5 0-.5.3-.5.1-.1 0-.1.2-.2.2 0 .4-.1.5-.1h.6c.1 0 .2.1.4.1.1.1.1.4.1.5.1.1.1.2.2.5 0 .1.1.5.1.6.1.1.1.2.1.4.1.1.1.4.1.5v.6s-.1.2-.4.4c-.1 0-.5.2-.7.1H29c-.1-.1-.4-.2-.4-.4-.1-.1-.4-.5-.4-.6V40c-.1-.1-.1-.2-.1-.2-.1-.1-.1 0-.1 0-.1.1-.2.4-.2.5 0 .1-.2.6-.4.7-.1.1-.1.4-.2.5-.1.1-.2.2-.2.4 0 .1-.1.2 0 .2 0 .1.1.2.2.2s.2 0 .2-.1c.1 0 .1-.1.2-.1.1-.1.1-.1.2-.1.2 0 .2.2.2.3.1 0 0 0 .2.1.1.1.1.1.2.1.2 0 .2 0 .4-.1 0-.1 0-.2.1-.2h.5c.1 0 .2 0 .4.1.1 0 .2.2.4.2s.4 0 .5-.1c.1-.1.2-.4.2-.5.1 0 .1-.1.2-.2s.1-.2.4-.2c.1-.1 0-.1.1-.1.3-.2.4-.4.4-.4.1 0 .1 0 .1.1s-.1.4-.1.4c0 .1-.2.5-.2.6 0 0-.1.5.2.5h.4c.1 0 0-.1.1-.1s.4 0 .6-.1h.6c.1.1.4 0 .4.1.1 0 .2 0 .2.1v.2c0 .1-.2.2-.1.2h.2c.1-.1.2-.1.5-.1H36c.1 0 .1.1.2.1s.2-.1.4-.1c.1 0 .1-.1.2-.2.2 0 .4-.1.5-.2 0 0 .1 0 .2.1.1 0 .2 0 .4.1.1.1 0 .4.1.6l.4.4c.1.1.1.2.2.4h.4c.1 0 .2 0 .2-.1s0-.4-.1-.5c0-.1-.1-.4-.1-.5l.1-.4s.1-.1.1-.2c.1-.2.2-.4.4-.6.2-.1.2-.4.4-.5.1-.1.2-.4.4-.4h.6c.4.1.5 0 .5.2.1.1 0 .5 0 .6-.1.1-.2.5-.4.6-.1.2-.2.4-.2.6v1.2c0 .1-.1.5 0 .6.1 0 0 0 .2-.1.2 0 .1-.1.4-.1.1-.1.4-.1.5 0 .1 0 .2.1.2.2.1.1.2.2.4.1 0 0 .1-.1 0-.1 0-.1.1-.2-.1-.4-.1-.2-.2-.4-.4-.5-.2 0-.4-.2-.5-.4-.1-.1-.1-.1-.1-.4-.1-.1-.1-.2 0-.5 0-.1.1-.4.1-.4 0-.1.2-.4.2-.5.1-.1.1-.6.2-.6s0 0 .1.1v.4c.1.2.1.4.1.5-.1 0-.1 0 .1-.1.1-.1.1-.2.2-.4.1 0 .1-.1.2-.1s.4.1.4.2l.1.1c.1.1.2.2.2.4 0 .1-.1.1-.1.2s-.1.2 0 .4v.4c0 .1 0 .2.1.2s.1.1.2 0v-.4s.1-.2.1-.4v-.4c.1-.1.1-.1.1-.2s-.1-.2-.1-.4c-.1 0 0-.1-.2-.1-.1-.1-.1-.1-.1-.2s-.1-.2-.1-.2c0-.1 0-.2.1-.4.1-.1.4-.2.4-.2s0-.1.2-.1c.1 0 .2 0 .4-.1.1 0 .2-.2.4-.4 0-.1.1-.4.4-.5.4-.2 1-.6 1.2-.6.2-.1.4-.2.6-.2h.4c.2 0 .2 0 .5-.1l.4-.4c.1-.1.2-.1.2-.2v-.6c0-.1.1-.1.1-.1.1 0 .1.1.1.1l.2.2c.2.1.2.2.5.2h.5c.2 0 .2 0 .6.1.2 0 .4.1.5.4.1.1.1.5 0 .7-.1.1-.6.9-.7 1.1-.1.1-.4.4-.2.5 0 .1.1.2.4.2.1 0 .6-.6.9-.7.1-.1.2-.5.5-.5.1-.1.4 0 .5 0 .1 0-.1.1.2.1h1c.2 0 .1.1.5.1.2 0 .2 0 .4-.1.1 0 0-.2 0-.2-.1-.1-.1-.1-.2-.4-.1-.1-.1-.1 0-.2 0-.1 0-.2.2-.2h1c.1 0 .2.1.4.1.1 0 .2.1.2.1.1.1-.2.1-.4.1 0 .1-.2.2-.2.2-.1.1 0 .1 0 .1 0 .1.1.1.2.2 0 0 .1.1.4.1h.9c.1.1.1.1.2.1s.2.1.4.1c.1 0 .1 0 .1-.1v-.6c0-.1-.1-.2 0-.4.1 0 .2-.1.2-.1.1-.1.2-.2.4-.2h.5c.1 0 .1 0 .2-.1.2-.1.2 0 .2-.2v-.4c0-.1-.1-.2-.1-.2 0-.1-.1-.1-.1-.2l-.2-.2v-.2l.2-.2c.1 0 .2-.1.4-.1h.2c.1 0 .2-.1.2.1 0 .1 0 .4.1.5.1 0 .1.1.2.1 0-.1.1-.2.1-.4 0-.1 0-.2-.1-.4 0-.1-.1-.1-.1-.2h.6c.1 0 .2-.1.4 0 0 .1.1.2.1.2s.1.1.2.1c0 0 .1 0 .4-.1.1-.1.2-.5.2-.5.1-.1.7-.9 1.5-1.4.1-.1 0-.1.2-.1.1 0 .1.2.2.2s0 .1.4.1c.1-.1.4-.1.4-.1.1 0 .2-.1.2-.2 0-.2 0-.2-.1-.2 0-.1-.1 0-.1-.1-.1-.1-.2 0-.1-.2.1-.1.1 0 .2-.1.2-.1.2-.1.4-.4.1-.1.1-.2.1-.4.1-.1.2-.1.4-.1.1-.1.2-.1.2-.2 0 0-.1-.1.1-.2s.1-.1.2-.2 0-.2 0-.2c-.1 0-.4-.1-.4-.1s-.2.1-.4 0c-.1 0-.1-.5-.1-.6 0-.2.1-.5.2-.7.2-.2.4-.4.5-.6.2-.1.7-.5 1-.6.1-.1.4-.4.6-.5.1-.1.2-.2.5-.2.2-.1.2 0 .5 0 .1 0 .2 0 .4-.2 0-.1-.1-.1-.1-.4-.1-.2-.1-.1-.1-.2.1-.1 0-.1.2-.2.2-.2.1-.2.4-.2.1 0 .2 0 .4.1.1 0 .4.4.7.5.4.2 1 .4 1 .5 0 0-.4 0-.4.1-.1 0 0 .2 0 .2v.1l-.1.1c-.1 0-.1.1-.4 0-.2 0-.4-.1-.4 0v.2c0 .1.1.2-.1.1-.2 0-.4.1-.5 0-.1 0-.1-.1-.1-.1s-.1.1-.1.2v.2c.1.1.2.1.4.2.1 0 0 0 .2.1.4.1.4.1.5.2 0 0 .1 0 .1.1 0 .2 0 .2-.1.4 0 .1-.1.1-.1.2s0 .2.2.2c.2.1.1 0 .4 0l.2-.1c.1-.1.2-.1.4-.1h.4l.2.2c0 .1.2.5.4.6 0 .1.2.4.2.5.1.1.1.2.2.4 0 .1 0 .4.1.5v.7c0 .2.1.4.2.6.1.1.2.4.4.5.1.1.2.1.2.2.1.1.1.1.1.2s-.1.2-.4.4c-.1.1-.4.2-.4.4l-.2.2c-.1.1-.2.4-.2.5.1.1.2.4.2.5.1.1.2.6.4.7 0 .1.1.2.2.4v.5c.1.1.1.2.4.4.1 0 .4.1.6.2.1.1.2.1.5.1.1.1.1.1.2.1l.4.2c0 .1.1.2.1.4 0 .1 0 .4.1.5.1 0 .2.1.5.1.1.1.2.1.2.2.1.1.1.4.1.5 0 .2-.1.4-.1.5 0 .1-.1.1-.1.2l.2.2c.2 0 .1.1.2.2 0 .1.1.1.1.2l.2.5v.2c.1.1.1.2.2.4.1 0 .1.2.2.4 0 .1.2.4.4.5.1.1.2.1.2.2 0 0 0 .1-.1 0 0 0-.4-.2-.5-.4-.1 0-.4-.1-.5-.2-.1-.1-.4-.2-.6-.4-.2-.1-.5-.4-.7-.4-.2-.1-.5-.2-.6-.4-.1 0-.5-.2-.6-.4l.5.4c-.1-.1-.2-.4-.5-.6l-.5-.5c0-.1-.1-.2-.1-.4v-.6c0-.2 0-.2-.1-.5-.1-.2-.1-.2-.1-.5 0-.1 0-.1-.1-.2 0-.2-.1-.2-.2-.5 0-.1 0-.2-.1-.4 0-.1-.1-.4-.1-.6-.1-.1-.2-.2-.2-.4 0-.1-.2-.4-.4-.5 0-.1-.1-.2-.2-.4-.4-.1-.4-.2-.5-.3h-.1v.1s.1.2.1.4c0 .1.1.4.1.5.1.2.2.5.2.7v.4c0 .1-.1.2-.1.2s-.1 0-.2-.1l-.2-.2s-.1-.1-.2-.1-.1 0-.1.1c-.2.1-.4.2-.4.3v.5c0 .1-.1.2-.1.4v.4c.1.2.1.4.1.5.1.1.2.2.2.5 0 .1 0 .2.1.4 0 .1.1.1.2.1.2 0 .2-.1.4 0 .1 0 .1.1 0 .2 0 .1-.2.7-.2.9 0 0 0 .1-.1.1s-.2-.1-.2-.2-.1-.1-.1-.2H71c0 .1-.2.1-.2.2s-.1.2-.1.2c-.1.1-.1.4-.2.4v.4c-.1 0-.2.1-.4.2 0 .1-.2.2-.5.5-.2.1-.2.2-.5.4-.2 0-.4.1-.5.2v3.8c-.1.4-.1.9-.1 1-.1.1-.1.4 0 .6.1.1.4.1.4.1h.1c.1 0 .2.1.4.1h.2c.1.1.2.1.2.1.1.1.1.1.2.1 0 .1 0 .1 0 0 0 0 .1-.1 0-.2v-.4c0-.1.1-.1.2-.2h.5c.1.1.4.1.5.1.1.1.2.1.4.2.1 0 .4.4.5.5.1.1.4.9.5 1.1.1.1.2.6.4.7.1.1.4.7.5.9.1.2.4.7.4 1 .1.1.2.6.2.9v1.9c0 .2-.1.5-.1.7 0 .1-.1.5-.1.6 0 .1 0 .6-.1.7v.7c-.1.1-.2.5-.2.6 0 .1.1.2 0 .4-.1 0-.5 0-.7-.1-.2 0-.4-.1-.5-.2-.1 0-.1-.1-.2-.2-.1 0-.2 0-.2-.1V60s0-.2.1-.5c0-.1 0-.4.1-.5 0-.1.1-.2.1-.4V58c0-.1.1-.4 0-.4-.1-.1-.2-.4-.2-.5v-.2c0-.2 0-.2-.1-.4v-.2c-.1-.1-.1-.1-.2-.1s-.4.2-.4.4c-.1.1-.2.4-.4.5-.2.1-.4.4-.5.4 0 0-.2.2-.2.1-.1 0-.2-.1-.2-.2-.1-.1 0-.2-.2-.2-.2-.1-.7 0-1 0-.2 0-.7-.1-.9-.1-.2 0-.6-.2-.7-.4-.1 0-.9-.7-1-.7 0-.1-.2-.4-.4-.5-.1-.1-.2-.2-.5-.4h-1c-.4 0-.6 0-.9.1-.1 0-.4.4-.5.5-.1.1-.1.4-.1.5 0 .1 0 .5.1.5 0 .1.2.4.2.6 0 .1 0 .7-.1.9 0 .1-.2.6-.4.7 0 .1-.5.2-.6.2-.2.1-.9.1-1.2.1-.2.1-.6.1-.7.2-.1.1-.5.6-.6.7-.1.1-.6.5-.9.5-.1.1-.5.2-.9.1-.5-.1-1-.2-1.1-.4-.1-.1-.1-.2-.4-.2-.4-.1-.9-.1-1-.1-.2 0-.5.1-.6.2-.2 0-.6.2-.7.2-.2 0-.6-.1-.7-.2-.1 0-.2-.1-.4-.2-.1-.1-.2-.1-.4-.2s-.2-.2-.2-.2c-.1 0-.2.1-.2.2-.1 0 0 .4-.1.5-.2.1-.4.4-.5.4-.2.1-.5.4-.7.4-.2 0-.9 0-1-.1-.1 0-.2-.1-.5-.1h-.9c-.2 0-.4-.1-.6-.1-.2 0-.5.1-.6.2-.1 0-.5.2-.6.2-.1 0-.4.2-.5.4-.1.1-.5.4-.6.4-.5 0-.7 0-1 .1-.1 0-.4 0-.5.1-.1 0-.1-.1-.2-.2l-.2-.2c-.1-.1-.4-.4-.5-.4 0-.1-.2-.2-.4-.4-.2-.1-.2-.4-.5-.4h-.6c-.1 0-.2 0-.4-.1-.1 0-.2-.2-.4-.4 0-.1-.1-.5-.2-.6 0-.1-.1-.5-.1-.6-.1-.2-.4-.5-.5-.6-.1-.2-.7-.5-.7-.5h-.6c-.2 0-.5.1-.6 0-.1-.1-.2-.4-.4-.5-.1-.2-.4-.4-.4-.5 0-.1-.2-.2-.4-.4-.1-.1-.1-.2-.2-.4 0-.1-.1-.4-.4-.4-.1-.1-.2-.2-.4-.2s-.6.2-.6.2h-2.8c-.2-.1-.6-.1-.9 0-.4 0-.6.1-.7.2-.1.1-.4.5-.4.6 0 .1-.4.4-.4.4l-.2.2c0 .1 0 .4-.1.5 0 .1 0 .2-.2.2-.4 0-.4.1-.5-.1-.1-.1-.4-.2-.5-.2-.2 0-.4-.1-.5-.2-.2-.2-.4-.2-.4-.2-.1 0-.4 0-.4-.1-.1-.1-.1-.2-.1-.4 0-.1-.1-.2-.2-.4-.1-.1-.4-.1-.5-.2l-.4-.4s-.4-.1-.6-.1c-.2-.1-.2-.1-.5-.2-.2 0-.5-.1-.6-.1l-.4.2c-.1.1-.1.2-.2.4-.1 0-.2.2-.2.1l-.2-.4c-.1-.1-.1-.1-.2-.1-.2.1-.2.4-.4.5-.2.1-.4.4-.5.5-.1 0-.2 0-.4.1-.1.2-.1.4-.1.5v.9c0 .1.1.5.1.6v.4l-.1.1H21c-.1 0-.1.1-.2.1 0 .1-.1.2-.4.4-.1.1 0 .4 0 .5-.1.1-.1.4-.1.4-.1.1-.1.5-.1.6-.2.1-.2.7-.2.8v.5c0 .2.1.4.1.6l-.3.2z" fill-rule="evenodd" clip-rule="evenodd" fill="none" stroke="#6ca9e0" stroke-width=".3" stroke-linejoin="round" stroke-miterlimit="2.613"/><path fill-rule="evenodd" clip-rule="evenodd" stroke="#000" stroke-width=".216" stroke-miterlimit="2.613" d="M30.4 27.9H32l14 22.6V44L35.8 27.9h1.6L46 41.5v-6.1l-4.7-7.5h1.6l3.1 4.9v-4.9h1.4v4.9l2.9-4.9h1.6l-4.5 7.4v6.1L56 27.9h1.5L47.4 44v6.4l14.3-22.5h1.6L47.5 52.8l.7 17.6 5.2 3H40.1l5.2-3 .6-17.6z"/><path class="st82" d="M46.8 22.9c.1 1-.9 1.8-.8 2.5.2.8.6 1.6.8 1.8.1.1-.1-.4.7-1.8.2-.3-.7-2.9-.7-2.5z"/><path class="st83" d="M46.8 22.9c.1 1-.9 1.8-.8 2.5.2.8.6 1.6.8 1.8.1.1-.1-.4.7-1.8.2-.3-.7-2.9-.7-2.5"/><path class="st83" d="M46.8 22.9c.1 1-.9 1.8-.8 2.5.2.8.6 1.6.8 1.8.1.1-.1-.4.7-1.8.2-.3-.7-2.9-.7-2.5z"/><path class="st82" d="M42.2 22.9c.1 1-.9 1.8-.8 2.5.2.8.6 1.6.8 1.8.1.1-.1-.4.7-1.8.2-.3-.7-2.9-.7-2.5z"/><path class="st83" d="M42.2 22.9c.1 1-.9 1.8-.8 2.5.2.8.6 1.6.8 1.8.1.1-.1-.4.7-1.8.2-.3-.7-2.9-.7-2.5"/><path class="st83" d="M42.2 22.9c.1 1-.9 1.8-.8 2.5.2.8.6 1.6.8 1.8.1.1-.1-.4.7-1.8.2-.3-.7-2.9-.7-2.5z"/><path class="st82" d="M36.7 22.9c.1 1-.9 1.8-.8 2.5.2.8.6 1.6.8 1.8.1.1-.1-.4.7-1.8.2-.3-.7-2.9-.7-2.5z"/><path class="st83" d="M36.7 22.9c.1 1-.9 1.8-.8 2.5.2.8.6 1.6.8 1.8.1.1-.1-.4.7-1.8.2-.3-.7-2.9-.7-2.5"/><path class="st83" d="M36.7 22.9c.1 1-.9 1.8-.8 2.5.2.8.6 1.6.8 1.8.1.1-.1-.4.7-1.8.2-.3-.7-2.9-.7-2.5z"/><path class="st82" d="M31.2 22.9c.1 1-.9 1.8-.8 2.5.2.8.6 1.6.8 1.8.1.1-.1-.4.7-1.8.1-.3-.8-2.9-.7-2.5z"/><path class="st83" d="M31.2 22.9c.1 1-.9 1.8-.8 2.5.2.8.6 1.6.8 1.8.1.1-.1-.4.7-1.8.1-.3-.8-2.9-.7-2.5"/><path class="st83" d="M31.2 22.9c.1 1-.9 1.8-.8 2.5.2.8.6 1.6.8 1.8.1.1-.1-.4.7-1.8.1-.3-.8-2.9-.7-2.5z"/><path class="st82" d="M51.3 22.9c.1 1-.9 1.8-.8 2.5.2.8.6 1.6.8 1.8.1.1-.1-.4.7-1.8.2-.3-.7-2.9-.7-2.5z"/><path class="st83" d="M51.3 22.9c.1 1-.9 1.8-.8 2.5.2.8.6 1.6.8 1.8.1.1-.1-.4.7-1.8.2-.3-.7-2.9-.7-2.5"/><path class="st83" d="M51.3 22.9c.1 1-.9 1.8-.8 2.5.2.8.6 1.6.8 1.8.1.1-.1-.4.7-1.8.2-.3-.7-2.9-.7-2.5z"/><path class="st82" d="M56.8 22.9c.1 1-.9 1.8-.8 2.5.2.8.6 1.6.8 1.8.1.1-.1-.4.7-1.8.2-.3-.8-2.9-.7-2.5z"/><path class="st83" d="M56.8 22.9c.1 1-.9 1.8-.8 2.5.2.8.6 1.6.8 1.8.1.1-.1-.4.7-1.8.2-.3-.8-2.9-.7-2.5"/><path class="st83" d="M56.8 22.9c.1 1-.9 1.8-.8 2.5.2.8.6 1.6.8 1.8.1.1-.1-.4.7-1.8.2-.3-.8-2.9-.7-2.5z"/><path class="st82" d="M62.4 22.9c.1 1-.9 1.8-.8 2.5.2.8.6 1.6.8 1.8.1.1-.1-.4.7-1.8.2-.3-.8-2.9-.7-2.5z"/><path class="st83" d="M62.4 22.9c.1 1-.9 1.8-.8 2.5.2.8.6 1.6.8 1.8.1.1-.1-.4.7-1.8.2-.3-.8-2.9-.7-2.5"/><path class="st83" d="M62.4 22.9c.1 1-.9 1.8-.8 2.5.2.8.6 1.6.8 1.8.1.1-.1-.4.7-1.8.2-.3-.8-2.9-.7-2.5z"/><path class="st0" d="M14.8 64.1c.2-.1.4-.3.6-.4.2-.2.2-.4.1-.6-.1-.2-.3-.3-.6-.2-.2 0-.4.1-.7.3-.2.1-.4.3-.6.4-.2.2-.2.4-.1.6.1.2.3.3.6.2.2-.1.4-.2.7-.3zm.3.5c-.3.2-.6.2-.9.1-.3-.1-.6-.3-.7-.5-.2-.3-.2-.6-.1-.9.1-.3.3-.5.6-.7.3-.2.6-.2.9-.1.3.1.5.3.7.6.2.3.2.6.1.9-.1.2-.3.4-.6.6zm2 2c.1-.1.2-.2.2-.3.1-.1.1-.2 0-.3-.1-.1-.1-.1-.2 0l-.7.5.3.3c0-.1.2-.1.4-.2zm.3.4c-.2.1-.4.1-.5.1-.2-.1-.3-.2-.4-.4l-.2-.2-.6.4c-.2.1-.2.2-.1.4h-.1l-.6-.9h.1c.1.1.2.2.4.1l1.3-.9c.1-.1.2-.2.1-.4h.1l.6.9c.3.3.3.6-.1.9zm2 2.6c0-.1 0-.1 0 0 .1-.2.2-.3.2-.5 0-.1 0-.3-.1-.4l-.1-.1-1.4 1.2c-.1.1-.2.3 0 .4h-.1l-.7-.8h.1c.1.1.3.1.4 0l1.4-1.2-.1-.1c-.1-.1-.2-.2-.4-.2-.1 0-.3 0-.4.1v-.1l.5-.4 1.3 1.6-.6.5zm1.6 2.3c.2-.2.3-.4.4-.6.1-.3.1-.5-.1-.7-.2-.2-.4-.2-.6-.1-.2.1-.4.2-.6.4-.2.2-.3.4-.4.6-.1.3-.1.5.1.6.2.2.4.2.6.1.2 0 .4-.2.6-.3zm.4.3c-.2.2-.5.4-.8.4-.3 0-.6-.1-.8-.3-.3-.2-.4-.5-.4-.8 0-.3.1-.6.4-.9.2-.2.5-.4.8-.4.3 0 .6.1.8.3.2.2.4.5.4.8-.1.4-.2.7-.4.9zm1.6 2.3l1-1.3v-.1l-.2-.2c-.1-.1-.2-.1-.3-.1-.1 0-.2.1-.3.3-.4.5-.8.8-1.1 1l.6.5c.1.1.2.1.3-.1-.1.1 0 .1 0 0zm1.8-.9c-.2-.1-.3-.1-.4.1l-1 1.2c-.1.1-.1.2-.1.2 0 .1 0 .1.1.2 0 .1-.1.1-.2.3l-.2.2v-.1c.1-.1.1-.2.1-.3 0-.2-.1-.4-.3-.5l-.5-.4c-.2-.2-.4-.2-.6-.2-.1 0-.2.1-.3.2l-.1-.1.5-.5c.2.1.3.1.5 0 .3-.2.6-.6 1-1 .1-.1.2-.2.2-.3 0-.1 0-.2-.2-.3v-.1l1.5 1.4zm2 2.8c.2-.2.3-.4.3-.6.1-.3 0-.5-.2-.6-.2-.1-.4-.1-.6.1-.2.1-.3.3-.5.5s-.2.4-.3.6c-.1.3 0 .5.2.6.2.1.4.1.6-.1.2-.1.3-.3.5-.5zm.4.3c-.2.3-.4.5-.7.5-.3.1-.6 0-.9-.2-.3-.2-.5-.4-.5-.8-.1-.3 0-.6.2-.9.2-.3.4-.5.7-.5.3-.1.6 0 .9.2.3.2.5.4.5.8.1.3 0 .6-.2.9zm2.9 2.8l-1-.5v-.1c.2.1.2.1.3 0v-.1l-.2-1.1h-.1l-.3.6c-.1.2 0 .3.1.4v.1l-1-.5v-.1c.2.1.3 0 .4-.1l.7-1.4c.1-.2 0-.3-.1-.4v-.1l1 .5v.1c-.2-.1-.3 0-.4.1l-.4.7 1.1-.3s.1 0 .1-.1 0-.2-.2-.2v-.1l.9.5v.1c-.1-.1-.2-.1-.3-.1-.1 0-.3 0-.5.1l-.6.2.3 1.5v.2c.2 0 .2 0 .2.1zm2.7.7c-.1.1-.3.1-.3.2h-.4c-.1 0-.2 0-.3-.1-.3-.1-.5-.3-.7-.6-.1-.3-.1-.6 0-.9.1-.3.3-.5.6-.7.3-.1.6-.1.9 0 .1.1.3.1.4.3.1.1.1.1.2.1h.1l.1-.1h.1l-.3.7h-.1V79c0-.2 0-.3-.1-.5s-.2-.3-.4-.4c-.2-.1-.4 0-.6.2-.1.1-.3.4-.4.6-.3.7-.2 1.1.2 1.2.2.1.3.1.5.1.1 0 .3-.1.4-.1l.1.1zm2.8.5l-.1-.9-.6.7.7.2zm.7 1l-1-.3v-.1c.2.1.3 0 .3 0v-.5l-.7-.2-.2.3s0 .1-.1.1c0 .1 0 .2.2.2v.1l-.7-.2V81c.1 0 .2 0 .3-.1l1.4-1.7h.1l.2 2.3.2.2zm3.1.7l-1.1-.2v-.1c.2 0 .3 0 .3-.2l.3-1.5v-.2l-.1-.1h-.2c-.1 0-.1 0-.2.1 0 .1-.1.4-.2.9s-.2.8-.4.9c-.1.1-.2.1-.3 0-.1 0-.2-.1-.2-.1-.1-.1-.1-.2 0-.3 0-.1 0-.1.1-.2.1 0 .1-.1.2 0 .1 0 .1 0 .1.1v.4c0 .1 0 .1.1.1s.2-.2.4-.6c0-.1.1-.4.2-.7l.1-.5V80s-.1-.1-.2-.1v-.1l1.8.4v.1c-.2 0-.3 0-.3.2l-.6 1.5c0 .1.1.2.2.4zm2.7-.2c0-.2 0-.3-.1-.4-.1-.1-.2-.2-.3-.2h-.2l-.1.8v.2l.1.1c.4-.1.6-.2.6-.5zm.6 0c0 .2-.1.4-.3.5-.2.1-.4.1-.6.1l-1.1-.1v-.1c.2 0 .3-.1.3-.3l.2-1.6c0-.2-.1-.3-.2-.3v-.1l1.1.1v.1c-.2 0-.3.1-.3.3l-.1.7h.2c.2 0 .4.1.6.2.1.1.2.3.2.5zm2.1-.4v.7c0 .2.1.3.3.3v.1H44v-.1c.2 0 .3-.1.3-.3v-1.6c0-.2-.1-.3-.3-.3v-.1h1.1v.1c-.2 0-.3.1-.3.3v.7h.8v-.7c0-.2-.1-.3-.3-.3v-.1h1.1v.1c-.2 0-.3.1-.3.3v1.6c0 .2.1.3.3.3v.1h-1.1v-.1c.2 0 .3-.1.3-.3v-.7h-.8zm4.5-.1c0-.3-.1-.5-.2-.7-.1-.3-.3-.4-.5-.4s-.4.2-.5.5c-.1.2-.1.4-.1.7 0 .3.1.5.2.7.1.3.3.4.5.4s.4-.2.5-.4c.1-.3.1-.6.1-.8zm.6-.1c0 .3-.1.6-.3.9-.2.3-.5.4-.8.4-.4 0-.6-.1-.9-.3-.2-.2-.4-.5-.4-.8 0-.3.1-.6.3-.9.2-.2.5-.4.8-.4.3 0 .6.1.9.3.2.2.3.5.4.8zm3-1c-.1 0-.1 0 0 0-.2-.4-.4-.5-.8-.5h-.3c-.1 0-.1 0-.1.1v.1l.3 1.6c0 .2.1.3.3.2v.1l-1.1.2v-.1c.2 0 .3-.1.2-.3l-.3-1.6c0-.2-.1-.3-.3-.2v-.1l1.9-.3.2.8zm2.9-.2c-.1-.3-.2-.5-.3-.7-.2-.2-.4-.3-.6-.3-.2.1-.3.2-.4.5 0 .2 0 .4.1.7.1.3.2.5.3.7.2.2.4.3.6.3.2-.1.3-.2.4-.5 0-.2 0-.4-.1-.7zm.6-.1c.1.3.1.6-.1.9-.2.3-.4.5-.7.6-.3.1-.6.1-.9-.1-.3-.2-.5-.4-.5-.8-.2-.4-.2-.7 0-.9.2-.3.4-.5.7-.5.3-.1.6 0 .9.1.3.1.5.3.6.7zm5.8-1.1l-1 .4v-.1c.2-.1.2-.2.1-.4l-.6-1.1-.2 1.7c.1.1.2.1.3.1v.1l-1 .4v-.1c.2-.1.2-.2.1-.4l-.6-1.5c-.1-.2-.2-.2-.4-.2V78l1-.4v.1c-.2.1-.2.2-.1.4l.6 1.3.2-1.7c-.1-.1-.2-.1-.3-.1v-.1l1-.4v.1c-.2.1-.2.2-.1.4l.6 1.5c.1.1.2.1.4.1zm1.9-3.7c0 .1 0 .1 0 0-.1.2-.1.3-.1.5v2.2c0 .1-.1.2-.2.3-.1.1-.2.1-.3.1-.1 0-.2-.1-.2-.2v-.2c0-.1.1-.1.1-.2h.2c.1 0 .1 0 .1.1v.2h.1c.1-.1.1-.3.1-.6l-1.6-.8c-.1-.1-.2 0-.3 0v-.1l1-.6v.1h-.1c-.1.1-.1.1-.1.2l.2.2.8.4v-1c0-.1-.1-.1-.1-.1s-.1 0-.2.1V76l.6-.5zm2.6.5l-.9-1.3-.1-.1s-.1 0-.3.1c-.1.1-.2.2-.2.3 0 .1.1.2.2.4.4.6.6 1 .6 1.4l.6-.4c.1-.1.1-.1.1-.2.1-.1 0-.1 0-.2zm-.4-2c-.1.1-.2.2-.1.4l.9 1.3c.1.1.1.2.2.2h.2c0 .1.1.1.2.3l.2.2-.1.1c-.1-.1-.2-.2-.3-.2-.2-.1-.4-.1-.6.1l-.5.4c-.2.2-.4.3-.4.5 0 .1 0 .2.1.4H66l-.3-.7c.2-.1.2-.3.1-.5-.1-.4-.3-.8-.6-1.2l-.2-.2c-.1 0-.2 0-.3.1v-.1l1.6-1.1zm3-.4l-.8-.4.3.9.5-.5zm1.3 0l-.8.7v-.1c.2-.1.2-.2.1-.3h-.1l-.4-.2-.6.5.1.3s0 .1.1.1c.1.1.2.1.3 0v.1l-.5.4V75c.1-.1.1-.2.1-.3l-.6-2.1.1-.1 2 1.1h.2zm2.5-2.5l-.8.8-.1-.1c.1-.1.1-.3 0-.4l-1-1 .4 1.7c.1.1.2.1.3 0v.1l-.8.8c.1-.1.1-.3 0-.4L70 71.5c-.1-.1-.3-.1-.4 0l-.1-.1.8-.8.1.1c-.1.1-.1.3 0 .4l1 1-.4-1.8c-.1-.1-.2-.1-.3 0l.8-.8.1.1c-.1.1-.1.3 0 .4l1.1 1.1c0 .1.2.1.4 0zm1.4-2.7c.2.2.3.3.2.6 0 .2-.1.4-.3.6-.1.1-.3.3-.4.3-.1.1-.2.1-.4.1v-.2c.2 0 .3 0 .4-.1.1 0 .2-.1.3-.2.1-.1.1-.3.1-.4 0-.1-.1-.2-.2-.3-.1-.1-.2-.2-.3-.1-.1 0-.2.1-.3.2l-.2.1-.1-.1c.1-.1.2-.2.2-.3.1-.1 0-.3-.2-.4-.2-.2-.4-.2-.6 0-.1.1-.1.3-.1.5 0 .1.1.3.2.5l-.1.1-.6-.5v-.1c.1.1.1 0 .2 0 0 0 0-.1.1-.2.1-.2.2-.3.3-.5.1-.2.3-.3.4-.3.2-.1.3 0 .5.1.2.2.3.5.1.8.2-.1.3-.2.4-.2.2-.1.3-.1.4 0zm3.2-3.3l-.7.9c.1-.2.1-.3-.1-.4l-1.4-.9 1.2 1.8v.1l-2.1-.4 1.4.9c.2.1.3.1.4-.1h.1l-.5.6h-.1c.1-.2.1-.3-.1-.4l-1.3-.9c-.1-.1-.2-.1-.2-.1-.1 0-.1.1-.2.2H74l.5-.7 1.7.3-.9-1.5.5-.7h.1c-.1.2-.1.3.1.4l1.3.9c.1.2.2.1.4 0zm.4-2.4l-.9-.1.6.7.3-.6zm1.2-.5l-.5 1h-.1c.1-.2.1-.3 0-.3h-.5l-.4.7.2.3.1.1c.1.1.2 0 .3-.2h.1l-.3.6h-.1c0-.1 0-.2-.1-.3l-1.4-1.7.1-.1 2.3.2c.1-.2.1-.2.3-.3zM12 51v.1c-.1.1-.2.1-.3.2-.1.1-.2.3-.2.6l.3 1.8h-.1c0-.2-.1-.3-.3-.2l-1.6.3c-.2 0-.3.1-.2.3h-.1L9.3 53h.1c0 .2.2.3.3.2l1.5-.3c.2 0 .3-.1.2-.3v-.3c0-.2-.1-.3-.3-.2l-1.5.3c-.2 0-.3.1-.2.3h-.1l-.2-1.1h.1c0 .2.2.3.3.2l1.5-.2c.1 0 .2-.1.2-.1v-.2h.1c.1 0 .2 0 .3-.1.1-.2.2-.2.4-.2zm-1.5-2.8l.7.1.1 1.9h-.1c0-.2-.1-.3-.3-.3l-1.6.1c-.2 0-.3.1-.3.3h-.1l-.1-1.9.7-.1v.1h-.1c-.2.2-.4.4-.4.7v.3c0 .1 0 .1.1.1h.1l.8-.1v-.2c0-.1-.1-.1-.1-.2h-.4v-.1l1.1-.1v.1c-.2.1-.3.1-.4.2-.1.1-.1.2-.1.4l.8-.1c.1 0 .2 0 .2-.1V49c0-.2-.1-.4-.2-.5-.1-.1-.2-.1-.4-.3zm-.5-1.8h.7c.2 0 .3-.1.3-.3h.1v1.1H11c0-.2-.1-.3-.3-.3H9.1c-.2 0-.3.1-.3.3h-.1v-1.1h.1c0 .2.1.3.3.3h.7v-.8h-.7c-.2 0-.3.1-.3.3h-.1v-1.1h.1c.1.1.2.2.4.2h1.6c.2 0 .3-.1.3-.3h.1v1.1h-.1c0-.2-.1-.3-.3-.3h-.7l-.1.9zm-.2-4.8c0 .1 0 .1 0 0-.2.1-.4.1-.5.2-.1.1-.2.2-.2.4v.1l1.8.2c.2 0 .3-.1.3-.2h.1l-.1 1.1h-.1c0-.2-.1-.3-.3-.3L9 42.9v.1c0 .2 0 .3.1.4.1.1.2.2.4.2v.1l-.7-.1.2-2h.8zm.4-2.5h-.4c-.1 0-.2.1-.2.2v.1c0 .1 0 .2.1.2l.9.2v-.4c0-.1-.1-.2-.4-.3zm.1-.5c.2 0 .4.2.4.4.1.2.1.4 0 .6l-.1.3.7.1c.2 0 .3 0 .3-.2h.1l-.2 1.1h-.1c0-.2 0-.3-.2-.3l-1.6-.3c-.2 0-.3 0-.3.2h-.1l.2-1.1c.3-.6.5-.9.9-.8zm1.5-2l-.9.1.7.5.2-.6zm1-.7l-.3 1h-.1c0-.2 0-.3-.1-.3h-.5l-.2.7.3.2s.1 0 .1.1c.1 0 .2 0 .2-.2h.1l-.2.7H12c0-.1 0-.2-.1-.3l-1.7-1.4v-.1l2.2-.2c.2-.1.3-.2.4-.2zm1.1-3l-.4 1h-.1c.1-.2 0-.3-.2-.4l-1.4-.5h-.2s-.1 0-.1.1l-.1.2c0 .1 0 .1.1.2.1 0 .4.2.9.4s.8.4.9.6v.3c0 .1-.1.2-.2.2h-.3c-.1 0-.1-.1-.2-.1v-.2c0-.1.1-.1.1-.1h.2s.1 0 .1.1l.1.1h.1c0-.1-.1-.3-.5-.4-.1-.1-.4-.2-.7-.3l-.4-.2h-.2s-.1.1-.1.2h-.1l.7-1.7h.1c-.1.2 0 .3.2.4l1.5.6c-.1-.3.1-.3.2-.5zm1.5-3l-.5 1h-.1c.1-.2 0-.3-.1-.4l-1.2-.6.9 1.4c.1 0 .2 0 .3-.2h.1l-.5 1h-.1c.1-.2 0-.3-.1-.4l-1.4-.7c-.2-.1-.3 0-.4.1h-.1l.5-1h.1c-.1.2 0 .3.1.4l1.3.6-.9-1.4c-.1 0-.2 0-.3.1h-.1l.5-1h.1c-.1.2 0 .3.1.4l1.4.8c.1.1.2 0 .4-.1zm1-2.8c.2.1.3.3.3.5s-.1.4-.2.6c-.1.2-.2.3-.4.4-.1.1-.3.1-.5.2v-.1c.2 0 .3-.1.4-.1.1-.1.2-.1.3-.3.1-.1.1-.3.1-.4 0-.1-.1-.2-.3-.3-.1-.1-.3-.1-.4-.1-.1 0-.2.1-.3.3l-.1.1-.1-.1c.1-.2.2-.3.2-.4 0-.1-.1-.3-.3-.4-.3-.2-.4-.1-.6.1-.1.1-.1.3 0 .5 0 .1.1.3.2.5v.1l-.7-.5v-.1h.2s0-.1.1-.2c0-.2.1-.4.2-.5.1-.2.2-.3.4-.4.2-.1.3-.1.5 0 .3.2.3.4.2.8.1-.1.3-.2.4-.3 0 0 .2 0 .4.1zm1.2-2.6c-.2-.2-.4-.3-.6-.3-.3-.1-.5 0-.6.1-.1.2-.1.4 0 .6.1.2.3.3.5.5s.4.3.6.3c.3.1.5 0 .6-.1.1-.2.1-.4 0-.6-.1-.2-.3-.3-.5-.5zm.4-.5c.3.2.4.5.5.8.1.3 0 .6-.2.9-.2.3-.5.4-.8.5-.3 0-.6 0-.9-.3-.3-.2-.4-.5-.5-.8 0-.3 0-.6.2-.9.2-.3.5-.4.8-.5.3 0 .6.1.9.3zm2.1-1.4l-.2-.2c-.1-.1-.2-.1-.4-.1-.1 0-.1.1-.2.2l-.1.1.6.5c.1.1.1.1.2.1s.1 0 .2-.1.1-.2.1-.3l-.2-.2zm-.9-.7c.1.1.1.2.1.3 0 .1-.1.2-.2.3v.1l-.6-.6-.1-.1s0-.1.1-.1l.2-.2c.1 0 .2 0 .2.1l.3.2zm1.2.1c.2.1.2.3.2.5s-.1.4-.2.5l-.9 1h-.1c.1-.1.1-.3 0-.4l-1.2-1.1c-.1-.1-.3-.1-.4 0h-.1l.6-.6.4-.4c.2-.1.3-.2.5-.2.1 0 .2 0 .3.1.1.1.2.2.2.4 0 .1 0 .2-.1.3.2-.1.3-.2.4-.2.1 0 .2 0 .4.1zm1.6-1.7l-.8-.4.3.8.5-.4zm1.2-.1l-.8.8v-.1c.1-.1.2-.2.1-.3h-.1l-.4-.2-.6.5.1.3s0 .1.1.1c.1.1.2.1.3-.1v.1l-.5.5v-.1c.1-.1.1-.2 0-.3l-.8-2.1.1-.1 2.1 1c.2.1.3.1.4 0zm.7-2l.5.6c.1.1.2.2.4.1v.1l-.8.6v-.1c.1-.1.2-.3 0-.4l-1-1.3c-.1-.1-.2-.2-.4-.1v-.1l.9-.7v.1c-.1.1-.2.3 0 .4l.4.5.7-.5-.4-.5c-.1-.1-.2-.2-.4-.1v-.1l.9-.7v.1c-.1.1-.2.3 0 .4l1 1.3c.1.1.2.2.4.1v.1l-1.1.8v-.1c.1-.1.2-.3 0-.4l-.5-.6-.6.5zm2.9-2l.4.6c.1.2.2.2.4.1v.1l-.9.6v-.1c.2-.1.2-.2.1-.4l-.8-1.4c-.1-.2-.2-.2-.4-.1v-.1l.9-.6v.1c-.2.1-.2.2-.1.4l.4.6.7-.4-.5-.5c-.1-.2-.2-.2-.4-.1v-.1l.9-.6v.1c-.2.1-.2.2-.1.4l.8 1.4c.1.2.2.2.4.1v.1l-.9.6v-.1c.2-.1.2-.2.1-.4l-.4-.6-.6.3zm3.6-1.6l-.7-.6.1.9.6-.3zm1.2.3l-1 .5v-.1c.2-.1.2-.2.2-.3v-.1l-.3-.3-.7.4v.4c0 .1.2.1.3 0v.1l-.6.3v-.1c.1-.1.1-.2.1-.3l-.1-2.2h.1l1.7 1.5c.1.2.2.2.3.2zm1.8-2l-.3-.8c-.1-.1-.1-.1-.3-.1-.2.1-.3.2-.3.3 0 .1 0 .2.1.3.1.2.2.3.3.3.1.1.2.1.5 0zm1.2.8l-1 .4V14c.2-.1.2-.2.2-.4l-.4-.6h-.1l-.3 1.3-.6.2v-.1s.1-.1.1-.2l.3-1.1h-.4l-.3-.3c-.1-.2 0-.4.1-.6.1-.1.3-.2.5-.3l1-.4v.1c-.2.1-.2.2-.2.4l.6 1.5c.2.2.3.2.5.2zM38 11c0-.1-.1-.2-.2-.3-.1-.1-.2-.1-.3-.1h-.1c-.1 0-.1.1-.1.2l.2.9c.1 0 .3-.1.3-.1.2-.2.3-.3.2-.6zm.5-.1c0 .2 0 .4-.1.5-.1.1-.3.2-.5.3l-.3.1.2.7c0 .2.2.3.3.2v.1L37 13v-.1c.2 0 .2-.2.2-.3l-.3-1.6c0-.2-.2-.3-.3-.2v-.1l1.1-.2c.4-.1.7 0 .8.4zm3.3.5v.7l-1.9.3v-.1c.2 0 .3-.1.2-.3l-.2-1.6c0-.2-.1-.3-.3-.2v-.1l1.9-.3.1.7h-.1v-.1c-.3-.3-.5-.4-.8-.4h-.3c-.1 0-.1 0-.1.1v.1l.1.8c.1 0 .2 0 .2-.1.1 0 .1-.1.2-.1 0-.1.1-.2.1-.4h.1l.2 1.1h-.1c-.1-.2-.1-.3-.2-.3-.1-.1-.2-.1-.4-.1l.1.8c0 .1 0 .1.1.2h.3c.2 0 .4-.1.5-.3 0 0 .1-.2.3-.4zm3.2.5l-1.1.1v-.1c.2 0 .3-.1.3-.3L44 10v-.2l-.1-.1h-.2c-.1 0-.1.1-.1.2v1c0 .5 0 .9-.1 1-.2.1-.2.1-.4.1-.1 0-.2 0-.3-.1-.1-.1-.1-.1-.1-.3v-.2c0-.1.1-.1.2-.1h.2l.1.1v.2c0 .1 0 .1.1.1s.2-.2.2-.7V9.7c0-.1 0-.2-.1-.2h-.2v-.1l1.8-.1v.1c-.2 0-.3.1-.3.3l.1 1.6c-.1.4 0 .5.2.6zm3.4 0h-1.1v-.1c.2 0 .3-.1.3-.3v-1.4l-.9 1.4c0 .1.1.2.3.2v.1h-1.1v-.1c.2 0 .3-.1.3-.3l.1-1.6c0-.2-.1-.3-.3-.3v-.1h1.1v.1c-.2 0-.3.1-.3.3l-.1 1.4.9-1.5c0-.1-.1-.2-.3-.2v-.1h1.1v.1c-.2 0-.3.1-.3.3l-.1 1.6c.1.3.2.4.4.5zm3-1.2c-.1-.1-.1-.1 0 0-.1-.4-.3-.6-.6-.7h-.3c-.1 0-.1 0-.1.1v.1l-.2 1.6c0 .2.1.3.2.3v.1l-1.1-.2v-.1c.2 0 .3-.1.3-.3l.2-1.6c0-.2-.1-.3-.2-.3v-.1l1.9.2-.1.9zm3.1 2.2l-1.1-.2v-.1c.2 0 .3 0 .3-.2L54 11l-1.2 1.3c0 .1.1.2.2.3v.1l-1.1-.2v-.1c.2 0 .3 0 .3-.2l.3-1.6c0-.2 0-.3-.2-.3v-.1l1.1.2v.1c-.2 0-.3 0-.3.2L53 12l1.2-1.3c0-.1-.1-.2-.2-.3v-.1l1.1.2v.1c-.2 0-.3 0-.3.2l-.3 1.6c-.2.3-.1.4 0 .5zm3-.2c.1-.3.1-.5.1-.7 0-.3-.1-.5-.3-.6-.2-.1-.4 0-.6.2l-.3.6c-.1.3-.1.5-.1.7 0 .3.1.5.3.5.2.1.4 0 .6-.2.1-.1.2-.3.3-.5zm.5.1c-.1.3-.3.6-.6.7-.3.2-.6.2-.9.1-.3-.1-.6-.3-.7-.6-.1-.3-.2-.6 0-.9.1-.3.3-.6.6-.7.3-.2.6-.2.9-.1.3.1.6.3.7.6.1.3.2.6 0 .9zm2.6 1.6c-.1.2-.3.3-.5.4-.2 0-.4 0-.6-.1-.2-.1-.3-.2-.4-.3-.1-.1-.2-.3-.3-.5l.1-.1c.1.2.1.3.2.3.1.1.2.2.3.2.2.1.3.1.4 0l.3-.3c.1-.1.1-.3 0-.4 0-.1-.1-.2-.3-.2h-.1l.1-.1c.2.1.3.1.4.1.1 0 .3-.1.4-.3.1-.3.1-.5-.2-.6-.1-.1-.3 0-.5 0-.1 0-.3.1-.4.3h-.1l.3-.7h.1c0 .1 0 .1.1.2h.2c.2 0 .4.1.5.1.2.1.3.2.4.3.1.2.1.3 0 .5-.1.3-.4.4-.7.3.2.1.3.2.3.3.1.3.1.5 0 .6zm1.9.4l-.4.7c-.1.2-.1.3.1.4v.1l-1-.5v-.1c.2.1.3 0 .4-.1l.8-1.4c.1-.2 0-.3-.1-.4v-.1l1 .5v.1c-.2-.1-.3 0-.4.1l-.3.6.7.4.3-.6c.1-.2 0-.3-.1-.4V14l1 .5v.1c-.2-.1-.3 0-.4.1l-.8 1.4c-.1.2-.1.3.1.4v.1l-1-.5V16c.2.1.3 0 .4-.1l.4-.7-.7-.4zm3.2 2.3l.2-.9-.7.5.5.4zm.4 1.2l-.9-.6v-.1c.2.1.3.1.3 0v-.1l.1-.4-.6-.3-.2.2-.1.1c-.1.1 0 .2.1.3v.1l-.6-.4V17c.1.1.2 0 .3 0l1.8-1.2.1.1L66 18c0 .1 0 .2.1.3zm2.6.6l.5-.7c.1-.1 0-.2-.1-.2-.1-.1-.3-.1-.4-.1-.1 0-.1.1-.2.2s-.2.3-.1.4c0 .1.1.2.3.4zm-.1 1.4l-.9-.7v-.1c.1.1.3.1.4 0l.5-.6-.1-.1-1.2.4-.5-.4v-.1h.2l1.1-.3c-.1-.1-.2-.2-.2-.4 0-.1 0-.3.1-.4.1-.2.3-.2.5-.2s.4.1.6.3l.9.7v.1c-.2-.1-.3-.1-.4 0l-1 1.2c-.1.3-.1.4 0 .6zm4 2.3c.2-.2.4-.4.4-.6.1-.3.1-.5 0-.7-.2-.2-.4-.2-.6-.1-.2.1-.4.2-.6.4-.2.2-.3.4-.4.6-.1.3-.1.5 0 .6.2.2.4.2.6.1.2.1.4-.1.6-.3zm.4.5c-.2.2-.5.3-.8.3-.3 0-.6-.1-.8-.4-.2-.3-.4-.5-.3-.9 0-.3.1-.6.4-.8.3-.2.5-.3.9-.3.3 0 .6.1.8.4.2.3.3.5.3.9-.2.2-.3.5-.5.8zm1.9 1.6c.1-.1.2-.2.2-.3.1-.1 0-.2 0-.3-.1-.1-.1-.1-.2 0l-.7.6c.1.1.2.2.3.2.1 0 .2-.1.4-.2zm.4.4c-.2.1-.4.2-.5.1-.2-.1-.3-.2-.5-.4l-.2-.2-.6.4c-.1.1-.2.2-.1.4h-.1l-.7-.9h.1c.1.1.3.2.4 0l1.3-1c.1-.1.2-.2.1-.4h.1l.7.9c.3.5.3.8 0 1.1zm1.5 2.4c.3-.4.3-.6.1-.9l-.1-.2c0-.1-.1-.1-.1-.1s-.1 0-.1.1l-1.4.9c-.2.1-.2.2-.1.4H75l-.6-.9h.1c.1.2.2.2.4.1l1.3-.9c.2-.1.2-.2.1-.4h.1l1 1.6-.6.3zm.4 2.4l.6-.7-.9.1.3.6zm-.2 1.3l-.5-1h.1c.1.2.2.2.3.2h.1l.3-.3-.4-.7h-.4c-.1.1-.1.2 0 .3h-.1l-.3-.6h.1c.1.1.2.1.3.1l2.2-.2v.1l-1.4 1.7c-.3.2-.3.2-.3.4zm1.8 1.1l-.7.3c-.2.1-.2.2-.2.4h-.1l-.4-1h.1c.1.2.2.2.4.1l1.5-.6c.2-.1.2-.2.2-.4h.1l.4 1H80c-.1-.2-.2-.2-.4-.1l-.6.3.3.8.6-.3c.2-.1.2-.2.2-.4h.1l.4 1h-.1c-.1-.2-.2-.2-.4-.1l-1.5.6c-.2.1-.2.2-.2.4h-.1l-.4-1h.1c.1.2.2.2.4.1l.7-.3-.3-.8zm.6 5.3l-.3-1.1h.1c.1.2.2.2.4.2l1.3-.4-1.7-.4c-.1.1-.2.2-.1.3H79l-.3-1.1h.1c.1.2.2.2.4.2l1.5-.5c.2-.1.2-.2.2-.4h.1l.3 1.1h-.1c-.1-.2-.2-.2-.4-.2l-1.3.4 1.7.4c.1-.1.2-.2.1-.3h.1l.3 1h-.1c-.1-.2-.2-.2-.4-.2l-1.5.5c-.2.1-.3.3-.3.5zm1.2 2.6c-.2 0-.4 0-.6-.2-.1-.1-.2-.3-.3-.6v-.5c0-.2.1-.3.2-.5l.1.1c-.1.1-.2.3-.2.3v.4c0 .2.1.3.2.3.1.1.3.1.4 0 .2 0 .3-.1.3-.2.1-.1.1-.2 0-.4v-.1h.1c0 .2.1.3.1.4.1.1.2.2.5.1s.4-.2.4-.5c0-.1-.1-.3-.3-.4-.1-.1-.3-.1-.5-.2v-.1l.8-.1v.1c-.1 0-.1.1-.1.2 0 0 0 .1.1.2.1.2.2.3.2.5v.5c-.1.2-.2.3-.4.3-.3.1-.5-.1-.7-.4 0 .2 0 .4-.1.5.1.1 0 .2-.2.3zm.6 2.2l.8-.4-.9-.2.1.6zm-.7 1.1l-.1-1.1h.1c0 .2.1.3.2.3h.1l.4-.2-.1-.8-.3-.1h-.1c-.1 0-.2.1-.1.3h-.1l-.1-.7h.1c0 .1.1.2.2.2l2.1.6v.1l-2 1.1c-.2.1-.3.2-.3.3zm-.4 3.5v-.1c.1 0 .2-.1.3-.1.2-.1.2-.3.2-.5v-1.8h.1c0 .2.1.3.3.3h1.6c.2 0 .3-.1.3-.3h.1v1.1h-.1c0-.2-.1-.3-.3-.3h-1.5c-.2 0-.3.1-.3.3v.3c0 .2.1.3.3.3h1.5c.2 0 .3-.1.3-.3h.1V47h-.1c0-.2-.1-.3-.3-.3h-1.5c-.1 0-.2 0-.2.1 0 0-.1.1-.1.2h-.7zm.3 3.4l.1-1.1h.1c0 .2.1.3.3.3l1.4.1-1.4-1c-.1 0-.2.1-.2.3h-.1l.1-1.1h.1c0 .2.1.3.3.3l1.6.1c.2 0 .3-.1.3-.3h.1l-.1 1.1h-.1c0-.2-.1-.3-.3-.3l-1.4-.1 1.4 1c.1 0 .2-.1.2-.3h.1l-.1 1.1h-.1c0-.2-.1-.3-.3-.3l-1.6-.1c-.2 0-.3.1-.4.3zm.8 2.5l.9.1c.1 0 .2 0 .2-.2s0-.3-.2-.4c-.1 0-.2-.1-.3-.1-.2 0-.3 0-.4.1-.1.1-.1.2-.2.5zm-1.3.6l.2-1.1h.1c0 .2.1.3.2.3l.7.1v-.1l-.9-.9.1-.7h.1s0 .1.1.2l.8.8c0-.1.1-.3.2-.3.1-.1.3-.1.4-.1.2 0 .4.2.4.4.1.2.1.4 0 .6l-.2 1.1H82c0-.2-.1-.3-.2-.3l-1.6-.3c-.1.1-.2.1-.3.3zM5.1 44.6v.2c0 .7-.4 1-1.2 1-.7 0-1.3-.4-1.3-1.1v-.1h2.5zm-2.5-1.1v-.1c0-.8.7-1 1.4-1 .8 0 1.1.3 1.1 1.1v.2l-2.5-.2zm2.8 1.1c.5 0 .6.2.6.6h.2l.1-2.2h-.2c0 .4-.2.6-.6.6h-.1v-.5c0-.9-.1-1.6-1.4-1.6-.8 0-1.6.5-1.7 1.4v.6h-.2c-.5 0-.6-.2-.6-.6h-.2V45h.2c0-.4.2-.6.6-.6h.2v.6c0 .9.7 1.5 1.5 1.6 1.2.1 1.4-.7 1.5-1.5l.1-.5zm-.5-5c-.4-.1-1.1-.4-1-.9.1-.5.6-.5 1.2-.4l-.2 1.3zm.7-1.9c-.9-.2-1.8.2-1.9 1-.1.4 0 .9.4 1.2.3.3.7.5 1.1.6 1 .2 1.7-.4 1.9-1.2.1-.6-.1-1-.5-1.5l-.2.2c.2.3.4.6.3 1-.1.6-.9.9-1.5.7l.4-2zm1.6-1.6c-.5-.4-1.1-.7-1.9-.9-.2-.1-.5-.2-.4-.5v-.1c.1-.3.2-.4.6-.3l1.8.5c.4.1.4.3.4.6l-.3.9-.2-.2zm.9-1.3c.1-.4.7-.7 1.2-.8v-.2l-1.1-.1c-.1.3-.2.4-.6.3l-1.8-.6c-.4-.1-.4-.3-.3-.6l-.2-.1-.8 2.7.2.1c.1-.3.4-.4.6-.3.4.1 1.4.5 1.8 1 .2.2.3.3.2.6l.9.5.1-.1c-.3-.3-.7-1-.6-1.4l.4-1zm-.8-3.3c-.4-.2-1-.6-.8-1.1.2-.4.6-.4 1.3-.1l-.5 1.2zm1-1.8c-.9-.4-1.8-.1-2.1.6-.2.4-.1.8.1 1.3.2.4.6.7 1 .8.9.4 1.8 0 2.1-.8.2-.5.1-1-.2-1.6l-.2.1c.2.3.3.7.1 1-.2.6-1 .7-1.6.4l.8-1.8zm.2-2.3c-.1-.3-.2-.5 0-.8.2-.5 1-.2 1.4 0 .4.2 1.2.8 1 1.3-.1.2-.3.3-.6.4l-1.8-.9zm2 1c.3-.1.6-.3.7-.6.2-.4.1-1.4-1-2-.8-.4-1.7-.4-2 .3-.2.3-.2.7 0 1l-.4-.2-.2 1.3.2.1c.2-.3.5-.2.8-.1l2.3 1.3c.5.3.4.4.3.6l.2.1.8-1.5-.2-.1c-.1.2-.2.3-.6.1l-.9-.3zm2-4.3c.1.2.1.5 0 .7-.2.2-.4.2-.7.1-.5-.4-.4-.9-.2-1.4l.9.6zm-.8-1.6c-.3-.2-.5-.3-.9-.3-.3.1-.5.4-.7.6-.6.9-.3 1.4-.1 1.6.2.1.4.1.5-.1.1-.2 0-.5-.2-.6-.2-.2-.3-.4-.2-.7.2-.4.7 0 .9.1l.2.1c-.3.6-.7 1.8.1 2.3.5.3.9.1 1.2-.3.2-.3.3-.7.2-1.1.3 0 .5-.1.7-.3.1-.2.1-.5 0-.8h-.1v.1c-.1.2-.3.1-.4 0l-1.2-.6zm3.9-1.5c.4-.4 1.2-.4 1.8-.3l.1-.2-1.2-.6c-.1.1-.3.3-.6 0l-1.5-1.3c-.3-.3-.2-.4-.1-.6l-.2-.1-1 1.3.2.1c.1-.2.3-.3.7.1l1.3 1.1c.4.3.3.5.2.7l-.3.2c-.1.1-.3.3-.6 0l-1.5-1.3c-.3-.3-.2-.4-.1-.6l-.2-.1-1 1.3.2.1c.1-.2.3-.3.7 0l1.3 1.1c.4.3.3.5.2.7l.2.1 1.4-1.7zm1.2-3.3l-.8-.8c-.3-.3-.5-.5-.2-.9l-.1-.1-.9.9.1.1c.4-.3.6-.2.9.2l1.7 1.6.3-.3-.4-3.1 1 1c.4.4.5.5.2 1l.1.1.9-1-.1-.1c-.4.3-.6.2-.9-.1l-1.3-1.3c0-.2 0-.5.1-.7l-.1-.1-.8.9.3 2.7zm3.9-4.5c-.6.5-.9.6-1.2.1-.3-.4-.2-.6.2-1 .2-.2.3-.1.5.1l.5.8zm-.5 1.7c.1.4.1.7-.1 1l.1.1.9-.8c0-.1-.1-.3-.1-.5l-.2-.7c-.2-.7 0-.7.2-.9l.6.8c.2.3.2.4-.1.7l.1.1 1.3-1.1-.1-.1c-.3.2-.4.2-.6 0L20.8 12c-.2-.3-.2-.4.1-.7l-.1-.1-1.6 1.3c-.5.5-.7 1-.4 1.4.3.4.8.2 1.2 0 0 .2-.1.3 0 .4l.2.6zm4.1-4.8c-.2-.4-.4-1.1 0-1.3.4-.2.7.1 1.1.7l-1.1.6zm1.9-.8c-.4-.9-1.3-1.2-2-.8-.4.2-.6.6-.7 1.1-.1.4 0 .9.3 1.3.5.9 1.4 1.1 2.1.7.5-.3.7-.7.8-1.3l-.2-.1c-.1.4-.2.7-.5.9-.5.3-1.2-.1-1.5-.7l1.7-1.1zm1.9-.9l-.4-.9v-.2c0-.1.2-.2.3-.2.4-.2.7-.2.9.3.2.4 0 .7-.5 1h-.3zm0 .2l.4.9c.2.4.2.5.7.3.4-.2.7-.5.4-1.1-.2-.4-.4-.6-1.2-.3l-.3.2zm1.4 1.2c.9-.4 1.1-.9.9-1.3-.2-.6-.8-.5-1.3-.4.3-.2.7-.6.5-1.1-.2-.4-.5-.6-1.6-.1l-1.7.7.1.1c.3-.1.5-.1.6.2l.8 2c.1.3.1.4-.3.6l.1.1 1.9-.8zm2.2-3.6c.1-.3.2-.5.5-.6.5-.2.8.5 1 1 .1.4.3 1.4-.2 1.6-.2.1-.4 0-.7-.2l-.6-1.8zm.7 2.2c.3.1.6.2.9.1.4-.1 1.1-.9.7-2.1-.3-.8-.9-1.5-1.7-1.2-.3.1-.6.4-.7.7l-.2-.5-1.1.8.1.2c.3-.1.5.2.6.5l.8 2.6c.1.5 0 .6-.2.7l.1.2 1.6-.5-.1-.2c-.2.1-.4.1-.5-.3l-.3-1zm3.2-2.7c-.1-.4-.1-1.1.4-1.3.5-.1.7.3.8 1l-1.2.3zm2.1-.1c-.2-1-.9-1.6-1.7-1.4-.4.1-.8.4-1 .8-.2.4-.2.9-.1 1.3.2 1 1 1.5 1.8 1.3.6-.1.9-.5 1.2-1l-.2-.1c-.2.2-.4.5-.7.6-.6.1-1.1-.5-1.3-1.1l2-.4zm2.8-2.7c.1-.1.2-.2.1-.3 0-.1-.1-.1-.2-.1s-.1.1 0 .2 0 .1.1.2c-.1-.1-.2 0-.4 0h-.3s-.1 0-.1-.1 0-.2-.1-.2-.1 0-.2.1c0 .2.1.2.2.3.1 0 .2.1.4 0 .1 0 .3 0 .5-.1zm-1.3 2.7L39 4.5c0-.5 0-.7.4-.8v-.2l-1.2.2v.2c.5 0 .5.2.6.7l.3 2.3.4-.1 1.6-2.6.2 1.4c.1.6 0 .7-.5.9v.2l1.3-.2v-.2c-.5 0-.6-.2-.6-.7l-.2-1.8c.1-.2.3-.4.5-.4v-.2l-1.2.2-1.4 2.2zm6.3-.3c-.2.4-.4.7-.8.7-.7 0-.9-.9-.9-1.6 0-.4.1-1.2.6-1.2.2 0 .4.2.4.4.1.3.1.5.4.5.2 0 .4-.2.4-.5 0-.6-.7-.8-1.1-.8-.9 0-1.6.8-1.6 1.9 0 .9.6 1.6 1.4 1.6.6 0 1.1-.4 1.4-1h-.2zm2.4-.4c.5.3.2.6.6 1.1.2.2.4.3.6.3.4 0 .6-.2.7-.4v-.1s-.5.3-.6-.1c-.1-.5-.1-.5-.4-.8-.1-.1-.7-.3-1-.3.3-.1.4-.5.6-.9.2-.4.3-.4.4-.1.1.2.5.2.6 0 .1-.2.1-.4-.1-.5-.2-.2-.8-.1-1.1.7-.2.8-.3.8-.8.8v-.8c0-.4.1-.5.4-.5v-.2H46v.2c.3 0 .5.1.5.5v1.9c0 .4-.1.5-.5.5v.2h1.8v-.2c-.3 0-.5-.1-.5-.5v-.9c.3 0 .5 0 .6.1zm3.4.5l.1-1.1c0-.5.1-.7.6-.7v-.2l-1.3-.1v.2c.4.1.5.3.4.8l-.2 2.3h.4l2.1-2.2-.1 1.4c0 .6-.1.7-.6.8v.2l1.3.1v-.2c-.4-.1-.5-.3-.5-.8l.3-1.9c.2-.2.4-.3.6-.3v-.2l-1.2-.1-1.9 2zm4-1.6V4c.2.1.3.4.4.6l.5 1.2-.6.5-.1.1c-.3.2-.4.3-.8.4V7l1.3.3v-.2c-.1 0-.3-.2-.2-.3 0-.1.2-.3.3-.4l.3-.2.2.5c0 .1.1.3.1.4 0 .1-.2.1-.3.1v.2l1.6.3v-.2c-.3-.2-.4-.5-.6-.8L57 5.5l.7-.6c.3-.2.4-.3.7-.3v-.2l-1.2-.2v.2c.1 0 .3.1.3.3 0 .1-.2.3-.3.3l-.3.2-.2-.4c0-.1-.1-.3-.1-.4 0-.1.1-.1.2-.1v-.2l-1.5-.3zM62.1 6c.6.2.2 1.2.1 1.6-.2.5-.6 1.4-1.1 1.2-.5-.2-.3-1.1-.1-1.6.1-.5.6-1.4 1.1-1.2zM61 9c.9.3 1.7-.2 2.1-1.1.3-.7.2-1.7-.8-2.1-.7-.3-1.7 0-2.1 1.1-.4.9 0 1.8.8 2.1zm4.8-1.1c.5.3.1 1.2-.1 1.6-.2.4-.7 1.2-1.2 1-.5-.3-.2-1.1.1-1.6.1-.5.6-1.3 1.2-1zm-1.5-.1c.2-.3.3-.4.5-.6.5-.4 1.4-.1 1.7.1.6.3.8-.1 1.1-.6l-.1-.1c-.2.2-.3.3-.6.1-1-.5-1.6-.2-2 .1-.4.3-.7.7-1.2 1.7-.4.9-.2 1.8.6 2.2.8.4 1.7 0 2.2-.9.3-.7.3-1.7-.5-2.1-.5-.3-1.2-.3-1.7.1zm5.5 6.5c.4.4.5 1.2.4 1.8l.2.1.6-1.2c-.1-.1-.3-.3 0-.6l1.2-1.6c.2-.3.4-.2.6-.1l.1-.2-1.3-1-.1.2c.2.1.3.3 0 .7l-1.1 1.4c-.3.4-.5.3-.7.2l-.3-.2c-.1-.1-.3-.3 0-.6l1.2-1.6c.2-.3.4-.2.6-.1l.1-.2-1.3-1-.1.2c.2.1.3.3 0 .7l-1.1 1.4c-.3.4-.5.3-.7.2l-.3-.2c-.1-.1-.3-.3 0-.6l1.2-1.6c.2-.3.4-.2.6-.1l.1-.2-1.3-1-.1.2c.2.1.3.3 0 .7l-1.1 1.4c-.3.4-.5.3-.7.2l-.1.2 3.4 2.5zm3.1 1l.8-.8c.3-.3.5-.5.9-.2l.1-.1-.9-.9-.1.1c.3.4.2.6-.2.9L71.9 16l.3.3 3-.5-.9 1c-.4.4-.5.5-1 .2l-.1.1 1 .9.1-.1c-.3-.4-.2-.6.1-.9l1.2-1.3c.2 0 .5 0 .7.1l.1-.1-.9-.8-2.6.4zm4.1 3.2l.6-.5c.3-.3.5-.3.7 0l.1-.1-1.2-1.4-.1.1c.2.3.2.5-.1.7l-1.4 1.2c-.3.3-.5.3-.7 0l-.1.1L76 20l.1-.1c-.2-.3-.2-.5.1-.7l.6-.5.9 1-.7.5c-.3.3-.5.2-.7 0l-.1.1 1.2 1.4.1-.1c-.2-.3-.2-.5.1-.7l1.4-1.2c.3-.3.5-.3.7 0l.1-.1-1.2-1.4-.1.1c.2.3.2.5-.1.7l-.6.5-.8-1zm6.9 5.2c.4-.2.6-.3.8.1.3.5.2 1-.5 1.3-.7.4-1.1.3-1.5-.4l-.2-.3 1.4-.7zM82.6 25c.4.8 1.1 1.6 2.1 1 .6-.3.9-1.1.2-2.3l-1.1-1.9-.2.1c.2.4.2.6-.3.8l-2.9 1.6c-.4.2-.6.2-.8-.2l-.2.1 1.1 1.9.2-.1c-.2-.4-.2-.6.3-.8l1.2-.7.4.5zm2.6 3.7c.2.6-.6 1-1.1 1.2-.4.2-1.3.5-1.6 0-.2-.5.6-1 1-1.2.5-.3 1.5-.6 1.7 0zm-2.9 1.2c.4.9 1.3 1.1 2.3.7.7-.3 1.3-1.1.9-2-.3-.7-1.2-1.3-2.3-.8-.9.4-1.3 1.4-.9 2.1zm2.4 4.5c-.4-.1-.7-.3-.9-.7-.2-.7.6-1.1 1.3-1.3.4-.1 1.2-.2 1.3.2.1.2-.1.4-.3.5-.3.1-.5.2-.4.6.1.2.3.4.6.3.6-.2.5-.9.4-1.3-.2-.9-1.2-1.4-2.2-1.1-.9.2-1.4 1-1.2 1.8.2.6.6 1 1.3 1.2l.1-.2zm.8 3.2c-.4-.1-.8-.3-.9-.7-.2-.7.6-1.1 1.3-1.3.4-.1 1.2-.2 1.3.2.1.2-.1.4-.3.5-.3.1-.5.2-.4.6.1.2.3.4.6.3.6-.2.5-.9.4-1.3-.2-.9-1.2-1.4-2.2-1.1-.9.2-1.4 1-1.2 1.8.2.6.6 1 1.3 1.2l.1-.2zm.7 1.6l1.1-.1c.5-.1.7 0 .8.4h.2l-.1-1.3H88c0 .5-.2.5-.7.6l-2.4.2v.4l2.6 1.7-1.4.2c-.6.1-.7 0-.9-.5H85l.2 1.4h.2c0-.5.2-.6.7-.6l1.8-.2c.2.1.4.3.4.5h.2l-.1-1.2-2.2-1.5zm.4 4.4h1.1c.5 0 .7 0 .8.5h.2v-1.3h-.2c-.1.5-.3.5-.8.5l-2.3.1v.4l2.4 1.9h-1.4c-.6 0-.7 0-.8-.5h-.2v1.4h.2c.1-.5.2-.6.7-.6l1.8-.1c.2.1.3.3.4.5h.2v-1.2l-2.1-1.6zm.7 12.8l.2.1.2.2.5.4c-.3.1-.6.3-.9.4-.3.1-.6.3-.9.4l-.3.2-.6.4c.1.1.2.2.3.2.1.1.3.1.4.2h.3l.1-.6 1 .5-.3 1.1-.5-.3c-.6-.1-1.2-.4-1.6-.9-.1.1-.3.2-.4.3-.1.1-.2.2-.4.3-.3-.2-.5-.4-.8-.7.2-.2.5-.3.7-.5l.8-.5.1-.1.6-.3c-.1-.1-.2-.1-.3-.2h-.4c-.1 0-.2.1-.3.1l-.7-.7-.1-.1c.1 0 .2-.1.3-.1h.7c.2 0 .4.2.6.3.1.1.2.1.2.2l.3.3.5-.3.7-.3zm-2.6 3.7c.2.2.4.5.6.7.1.2.2.5.3.9l-.1.1-.2-.2-.3-.2-.2-.2c-.1 0-.1-.1-.1-.1s-.1 0-.2-.1h-.3c-.2.1-.3.2-.5.3l-.4.3-.3-.4-.1-.1-.3-.4c.1-.1.2-.1.3-.2.1-.1.2-.1.3-.2l.6-.3c.2-.1.4-.1.6 0l.1.1h.2zm.2 3.5c.3.2.5.5.8.8l-.8-.1h-.7c.2.2.4.5.6.8.1.4.2.8.1 1.1l-.5-.4-.1-.1-.1-.1-.3-.2v-.7c-.1-.2-.1-.4-.3-.6h-.7c-.1 0-.2.1-.2.1-.1 0-.2.1-.3.1-.2.1-.3.2-.5.3l-.7-1c.4-.2.6-.3.7-.4.3-.1.6-.2.8-.1l.9.2.5.1.8.2zm-2.3 2.2l-.2-.1-.2-.1c-.2-.1-.3-.1-.4-.2-.1 0-.3-.1-.4-.1-.2 0-.4.1-.6.1-.2.1-.4.1-.6.2.2.4.4.8.6 1.1.2-.1.4-.2.5-.2.2-.1.3-.1.6-.2.1 0 .3.1.6.2l.4.2.2.1 1.1.6c-.1-.4-.3-.8-.6-1.1l-1-.5zM80.1 67l.7.9-.2.2 1.5 1c.2.3.3.7.3 1.1l-.9-.6-.1-.1h-.1l-1.3-.8-1 1.5c-.2-.2-.4-.5-.5-.7-.1-.1-.1-.3-.2-.4 0-.1-.1-.3-.1-.5.2.1.3.2.5.2l.5-.8c-.1-.3-.1-.5-.1-.8l.4.3.6-.5zm-4.7 10.1l-.4-.4-.7-.7v.8c0 .1 0 .2.1.3l1.1 1c0-.3 0-.6-.1-1zm1.1-1.8l.5.4v.9l-.8-.6-.1-.1-.7-.6-.2-.2c0-.1-.1-.1-.2-.1s-.2 0-.2.1l-1.6 1.6-.3-.9c-.1-.3-.1-.6-.1-.9l.2.1.2.2 1-1c.1-.1.3-.2.4-.2.2 0 .3 0 .5.2l.7.7.7.4zm-5.7 3.6l1 1.3.7.8c.1.4.1.7.1 1.1L70.8 80v-1.1zm1.2-2.2c-.1 0-.1-.1-.2-.1h-.2l-.1.1s-.1 0-.1.1L69.8 78c-.2-.1-.3-.2-.4-.3 0 .6.1 1.2.3 1.7l2-1.5h.2l.1.1c.1.1.1.1.1.2s.1.1.1.2c.1.1.1.2.1.4 0 .1-.1.3-.1.4 0 .1-.1.2-.2.3l.2.5.1.1.2.5c.2-.2.3-.5.4-.8.1-.3.1-.6.1-.9 0-.4-.1-.7-.2-1-.1-.2-.1-.3-.2-.4-.1-.1-.2-.3-.3-.4l-.3-.4zm-4.3 6.2l-.3-.5-.5-.8c0 .2-.1.3-.1.3v.8l.8 1.3c0-.5.1-.8.1-1.1zm1.4-1.6l.3.5c0 .3 0 .6-.1.9l-.6-.8-.1-.1-.5-.8-.1-.1c-.1-.1-.1-.1-.2-.1h-.3L65.6 82c0-.4-.1-.7-.1-.9 0-.3 0-.6.1-.9l.1.2.2.2 1.2-.7c.2-.1.3-.1.5-.1s.3.1.5.3l.5.8.5.4zm-4.4 1.3c0 .3 0 .6-.1.9-.1.3-.2.5-.4.8h-.1v-1.1s0-.1-.1-.1c0-.1-.1-.1-.1-.1l-.1-.1c-.2 0-.4-.1-.5-.1l-.5-.1.1-.5V82l.1-.5c.1 0 .2 0 .3.1.1 0 .2.1.3.1.2.1.5.1.7.2.2.1.4.2.5.4l.1.1-.2.2zm-3 .2c-.1-.1-.1-.1-.2-.1 0 0-.1 0-.2.1l-1.4.5h-.1v-.1l-.1-.3c-.1-.2-.2-.4-.2-.5-.1-.2-.2-.3-.4-.4l-.3 1.1c.1 0 .1 0 .2.1.1 0 .1.1.1.1l.3.7v.2c0 .1.1.1.1.2h.1c.1 0 .1 0 .2-.1h.1l1.2-.4h.2s.1.1.1.2 0 .2.1.3v.2c0 .2 0 .3-.2.4l-.3.3c-.1.1-.2.2-.4.3v.6l-.1.7c.5-.3.8-.5 1.1-.9.3-.4.5-.8.5-1.3v-.8c0-.2 0-.3-.1-.5 0-.1-.1-.3-.1-.4l-.2-.2zm-3.3 2.7l.3 1c-.1.4-.2.8-.4 1.2l-.3-1.2-.1-.2-.1-.3c-.1-.2-.2-.4-.3-.5-.2-.1-.3-.2-.5-.3-.2-.1-.3-.1-.6-.2l.3-1.2c.2.1.4.1.6.2.2.1.4.2.5.3l.3.3c.1.1.1.3.2.4v.2l.1.3zM56 87.2c0 .4-.1.8-.3 1.2v-.3l-.1-.5-.3-1.1-.2-.4c-.1-.1-.2-.2-.3-.2l-.9.2c.2.3.3.6.4.8.1.2.1.4.2.6v1l-1.5.2v-.4l.1-.7.6-.1c-.2-.4-.4-.9-.6-1.3l-.5.1c0-.3 0-.6.1-.8.1-.2.1-.5.3-.8l.1.3c0 .1.1.2.2.2l1.5-.3h.2c.2 0 .4.2.5.5l.1.4.4 1.4zm-11.6 1.5v-.6l.1-1-.2.2s-.1.1-.1.2l-.2.2-.2.2-.1 1.5.7-.7zm2.1-.5l-.1.6c-.2.3-.4.5-.7.7v-2.3c0-.1 0-.2-.1-.2-.1-.1-.1-.1-.2-.1l-2.3-.1c.2-.3.4-.6.5-.8.2-.3.4-.5.7-.7v.5l1.5.1c.2 0 .3.1.4.2.1.1.2.3.2.5l-.1 1 .2.6zm-4.2-1.3c-.2.3-.4.5-.6.7-.2.2-.5.3-.8.5h-.1l.2-.2.2-.3c0-.1.1-.1.1-.2s0-.1.1-.2v-.4s0-.1-.1-.1l-.4-.4-.4-.3.3-.4.1-.1.4-.4c.1.1.2.1.2.2.1.1.2.2.2.3.2.2.3.3.4.5.1.2.2.4.2.6v.2zm-5.9.8l.1-.6.2-1c-.1.1-.2.2-.3.2 0 0-.1.1-.2.1l-.2.2-.2.2-.3 1.5c.4-.1.7-.3.9-.6zm2.2-.1l-.2.6c-.2.2-.5.4-.8.6l.2-1v-.2l.2-.9v-.4c0-.1-.1-.1-.2-.2l-2.2-.5c.2-.3.4-.5.6-.7.2-.2.5-.4.8-.6v.5l1.4.3c.2 0 .3.1.4.3.1.1.1.3.1.5l-.2 1-.1.7zm-4-1.7l-.3 1c-.3.3-.6.5-1 .7l.4-1.1.1-.2.1-.4c.1-.3.1-.4.1-.6-.1-.2-.2-.4-.3-.5-.1-.1-.2-.3-.3-.5.3-.3.6-.5 1-.8.1.2.2.3.3.5.1.2.2.4.2.6v.4c0 .1-.1.3-.1.5l-.1.2-.1.2zm-1.6-2l-.8.8-.3-.1-.7 1.6c-.3.2-.7.4-1.1.5l.4-1v-.2l.6-1.3-1.7-.7c.2-.2.4-.4.7-.6.1-.1.3-.2.4-.2.1-.1.3-.1.5-.2-.1.2-.1.3-.1.5l.9.4c.3-.1.5-.2.8-.2l-.2.5.6.2zm-4.6-.6c-.3.2-.5.4-.8.5-.3.1-.6.1-.9.2l-.1-.1.3-.2.3-.2c.1 0 .1-.1.2-.2l.1-.1.1-.1c0-.1 0-.1.1-.2v-.1c-.1-.2-.1-.3-.2-.5l-.5-.4.4-.2.1-.1.5-.3c.1.1.1.2.1.3 0 .1.1.2.1.3.1.2.2.4.2.6.1.2.1.4 0 .6l-.1.1.1.1zm-3.1-1.1l.1-.2.1-.2c.1-.2.2-.3.2-.4 0-.1.1-.3.1-.4 0-.2-.1-.4-.1-.6 0-.2-.1-.4-.2-.6-.4.1-.8.3-1.2.5.1.2.2.4.2.5.1.2.1.3.1.5 0 .1-.1.3-.2.5l-.2.4-.1.2-.6 1c.4-.1.8-.3 1.2-.5l.6-.7zm-3-.6c-.3.2-.7.4-1.1.5l.1-.1.1-.1v-.1l.3-.4.7-1 .2-.4c.1-.1.1-.3-.1-.3l-.7-.5c-.1.3-.3.6-.4.8-.1.2-.2.3-.3.5-.1.1-.1.1-.2.1l-.2.2c-.1 0-.1.1-.2.1s-.2.1-.2.1l-1-.7.2-.1.2-.1.6-.4.5.3c.2-.4.4-.8.6-1.3l-.4-.3c.2-.2.5-.3.7-.5.2-.1.5-.2.8-.3l-.1.3c0 .1-.1.2-.1.3l1.2.9.2.2c.1.1.1.4-.1.7l-.2.4-1.1 1.2zm-6.9-5.8l-.5.2h-.2l-.4.1-2-2.1 1.1-.3 1.1 1.1.3-.3.3-.4c.1-.1.1-.2.2-.3 0-.1 0-.2-.1-.3l-1-1.1.9-.3c.3-.1.6-.1 1-.1l-.2.2-.2.2.7.8c.2.2.3.5.1.8-.1.2-.3.4-.6.6l-.9.8.4.4zm-3.2-3.1l1-.7.3-.2.3-.3c.1-.2.2-.3.2-.5s0-.4-.1-.5l-.6-.7c0-.1.1-.2.2-.2l.2-.2c-.7-.1-1.3 0-1.9.2l.8 1.1c.1.1.1.3.1.5-.1.2-.2.3-.3.4l-.7.5-.1.1-.7.5c.5.1.9.1 1.3 0zm-1.4-3.9l-.9.5c-.4 0-.9 0-1.3-.1l1.1-.6.2-.1.4-.2c.2-.1.4-.3.4-.4.1-.2.1-.4.2-.5 0-.2.1-.4.1-.6.4 0 .8 0 1.3.1 0 .2-.1.4-.1.6-.1.2-.1.4-.2.6l-.3.3c-.1.1-.2.2-.4.3l-.2.1h-.3zm-1.6-3c.1 0 .2-.1.2-.2s.1-.1 0-.2l-.1-.2-.1-.2-.4-.8-1 .9-.1.1v.2c.1.2.4.4.6.5.3.1.6 0 .9-.1zm1.3.2l-.2.1-.1.1c-.6.3-1.2.4-1.8.4-.6 0-1.1-.2-1.5-.7l-.1-.1-.1-.1c-.1-.2 0-.5.2-.7l.2-.2.2-.2 1.2-1-.2-.4c.3-.1.6-.1.9-.1.3 0 .6 0 .9.1l-.4.4.4.9.1.1.4.8c.1.1.1.2.1.3-.1.1-.1.2-.2.3zm-2.8-3.7c-.3 0-.6-.1-.9-.2-.3-.1-.6-.3-.8-.5v-.1l.3.1h1c.1 0 .1 0 .2-.1l.1-.1c.1-.2.1-.3.2-.5l.1-.5.5.1h.2l.5.1c0 .1-.1.2-.1.3 0 .1-.1.2-.1.3l-.3.6c-.1.2-.3.3-.4.4h-.1l-.4.1zm-3.4-4.5l.6-.1 1-.2c-.2-.1-.3-.1-.3-.2 0 0-.1 0-.2-.1-.1 0-.2-.1-.3-.1 0 0-.1-.1-.2-.1l-1.5.4c.3.2.6.3.9.4zm1.1 1.9l-.6.1c-.3-.1-.6-.2-.9-.4l1-.3h.2l.9-.3.2-.1c.1 0 .2-.1.2-.1 0-.1.1-.1.1-.2L6 56.3c.4.1.7.2.9.2.3.1.6.2.9.4l-.3.1-.3.1.4 1.4c0 .2 0 .3-.1.5-.1.1-.2.3-.4.3l-1 .2-.7.2z"/><ellipse class="st0" cx="4.7" cy="50.7" rx="1" ry="1"/><ellipse class="st0" cx="87" cy="51.5" rx="1" ry="1"/></svg>