<svg xmlns="http://www.w3.org/2000/svg" width="67" height="66" viewBox="0 0 67 66">
    <g fill="#26465f" fill-rule="nonzero">
        <path d="M38 45.249C38 42.906 36.206 41 34 41s-4 1.906-4 4.249V66h8V45.249z"/>
        <path d="M48 13.381L35.391.583a1.953 1.953 0 0 0-2.782 0L20 13.381V66h5.902V45.451c0-4.494 3.633-8.15 8.098-8.15 4.465 0 8.098 3.656 8.098 8.15V66H48V13.381zm-9.9 10.604l1.095 1.79a.61.61 0 0 1-.515.93h-2.295c-.21 0-.406.11-.516.29l-1.353 2.224a.603.603 0 0 1-1.032 0l-1.353-2.224a.604.604 0 0 0-.516-.29H29.32a.61.61 0 0 1-.515-.93l1.095-1.79a.613.613 0 0 0 0-.638l-1.095-1.79a.61.61 0 0 1 .515-.93h2.295c.21 0 .406-.11.516-.29l1.353-2.224a.603.603 0 0 1 1.032 0l1.353 2.224c.11.18.305.29.516.29h2.295a.61.61 0 0 1 .515.93l-1.095 1.79a.612.612 0 0 0 0 .638zM16 17.382C15.317 13.758 12.02 11 8.066 11 3.618 11 0 14.487 0 18.773v45.28C0 65.128.904 66 2.02 66H16V17.382zM6.665 25.16a1.926 1.926 0 0 1-.591-1.377c0-.513.215-1.015.59-1.377a2.075 2.075 0 0 1 2.858 0c.376.363.592.864.592 1.377 0 .512-.216 1.013-.592 1.377a2.08 2.08 0 0 1-2.857 0zm-.591 20.166c0-.512.215-1.014.59-1.377a2.075 2.075 0 0 1 2.858 0c.376.364.592.865.592 1.377 0 .513-.216 1.014-.592 1.377a2.08 2.08 0 0 1-2.857 0 1.925 1.925 0 0 1-.591-1.377zm3.448-9.395a2.08 2.08 0 0 1-2.857 0 1.926 1.926 0 0 1-.591-1.376c0-.513.215-1.015.59-1.377a2.075 2.075 0 0 1 2.858 0c.376.363.592.864.592 1.377 0 .512-.216 1.013-.592 1.376zM58.934 11c-3.955 0-7.251 2.758-7.934 6.382V66h13.98c1.116 0 2.02-.872 2.02-1.947v-45.28C67 14.487 63.382 11 58.934 11zm-1.75 12.783c0-.513.215-1.015.59-1.377a2.075 2.075 0 0 1 2.858 0c.376.363.591.864.591 1.377 0 .512-.215 1.013-.591 1.377a2.08 2.08 0 0 1-2.857 0 1.925 1.925 0 0 1-.592-1.377zm.59 20.166a2.075 2.075 0 0 1 2.858 0c.376.364.591.865.591 1.377 0 .513-.215 1.014-.591 1.377a2.08 2.08 0 0 1-2.858 0 1.926 1.926 0 0 1-.59-1.377c0-.512.215-1.014.59-1.377zm-.59-9.394c0-.513.215-1.015.59-1.377a2.075 2.075 0 0 1 2.858 0c.376.363.591.864.591 1.377 0 .512-.215 1.013-.591 1.376a2.08 2.08 0 0 1-2.857 0 1.925 1.925 0 0 1-.592-1.376z"/>
    </g>
</svg>
